<?xml version="1.0" encoding="UTF-8" standalone="no"?>
<svg
   xmlns:dc="http://purl.org/dc/elements/1.1/"
   xmlns:cc="http://creativecommons.org/ns#"
   xmlns:rdf="http://www.w3.org/1999/02/22-rdf-syntax-ns#"
   xmlns:svg="http://www.w3.org/2000/svg"
   xmlns="http://www.w3.org/2000/svg"
   xmlns:sodipodi="http://sodipodi.sourceforge.net/DTD/sodipodi-0.dtd"
   xmlns:inkscape="http://www.inkscape.org/namespaces/inkscape"
   id="svg7552"
   version="1.1"
   viewBox="0 0 70 50"
   height="50mm"
   width="70mm"
   sodipodi:docname="HeiGIT_Logo_compact.svg"
   inkscape:version="0.92.0 r15299"
   inkscape:export-filename="D:\heiBOX\unlocked collection\projects\HeiGIT\heigit_logo\2017-03-06_HeiGIT_Logo\image_versions\96dpi_web\HeiGIT_Logo_compact_420x300.png"
   inkscape:export-xdpi="152.39999"
   inkscape:export-ydpi="152.39999">
  <sodipodi:namedview
     pagecolor="#ffffff"
     bordercolor="#666666"
     borderopacity="1"
     objecttolerance="10"
     gridtolerance="10"
     guidetolerance="10"
     inkscape:pageopacity="0"
     inkscape:pageshadow="2"
     inkscape:window-width="2560"
     inkscape:window-height="1315"
     id="namedview62"
     showgrid="false"
     inkscape:zoom="1.7957408"
     inkscape:cx="134.52362"
     inkscape:cy="63.173735"
     inkscape:window-x="1531"
     inkscape:window-y="7667"
     inkscape:window-maximized="1"
     inkscape:current-layer="svg7552" />
  <defs
     id="defs7546" />
  <metadata
     id="metadata7549">
    <rdf:RDF>
      <cc:Work
         rdf:about="">
        <dc:format>image/svg+xml</dc:format>
        <dc:type
           rdf:resource="http://purl.org/dc/dcmitype/StillImage" />
        <dc:title></dc:title>
      </cc:Work>
    </rdf:RDF>
  </metadata>
  <g
     transform="translate(-43.306692,-109.96979)"
     id="layer1">
    <g
       transform="translate(-62.940828,171.47083)"
       id="g5953"
       style="display:inline">
      <g
         id="g5882"
         style="display:inline"
         transform="matrix(1.2318863,0,0,1.2318863,65.723273,-475.34264)">
        <g
           aria-label="HEIDELBERG INSTITUTE"
           style="font-style:normal;font-variant:normal;font-weight:normal;font-stretch:normal;font-size:10.58333397px;line-height:0.33072919px;font-family:'Gotham Medium';-inkscape-font-specification:'Gotham Medium, ';letter-spacing:0.33866665px;word-spacing:0px;clip-rule:evenodd;fill:#000000;fill-opacity:1;fill-rule:evenodd;stroke:none;stroke-width:0.26458332px;stroke-linecap:butt;stroke-linejoin:miter;stroke-opacity:1;image-rendering:optimizeQuality;shape-rendering:geometricPrecision;text-rendering:geometricPrecision"
           id="g5822">
          <path
             d="m 36.663896,362.16502 h 0.210961 v 1.31445 h 1.817511 v -1.31445 h 0.210961 v 2.83986 h -0.210961 v -1.33067 h -1.817511 v 1.33067 h -0.210961 z"
             style="font-style:normal;font-variant:normal;font-weight:normal;font-stretch:normal;font-size:4.05694437px;font-family:'Gotham Light';-inkscape-font-specification:'Gotham Light, ';font-variant-ligatures:normal;font-variant-caps:normal;font-variant-numeric:normal;font-feature-settings:normal;text-align:start;letter-spacing:0.015875px;writing-mode:lr-tb;text-anchor:start;fill:#000000;stroke-width:0.26458332px"
             id="path5784"
             inkscape:connector-curvature="0" />
          <path
             d="m 39.762098,362.16502 h 2.020358 v 0.19474 h -1.809397 v 1.11565 h 1.626835 v 0.19474 h -1.626835 v 1.14 h 1.829682 v 0.19473 h -2.040643 z"
             style="font-style:normal;font-variant:normal;font-weight:normal;font-stretch:normal;font-size:4.05694437px;font-family:'Gotham Light';-inkscape-font-specification:'Gotham Light, ';font-variant-ligatures:normal;font-variant-caps:normal;font-variant-numeric:normal;font-feature-settings:normal;text-align:start;letter-spacing:0.015875px;writing-mode:lr-tb;text-anchor:start;fill:#000000;stroke-width:0.26458332px"
             id="path5786"
             inkscape:connector-curvature="0" />
          <path
             d="m 42.524207,362.16502 h 0.210961 v 2.83986 h -0.210961 z"
             style="font-style:normal;font-variant:normal;font-weight:normal;font-stretch:normal;font-size:4.05694437px;font-family:'Gotham Light';-inkscape-font-specification:'Gotham Light, ';font-variant-ligatures:normal;font-variant-caps:normal;font-variant-numeric:normal;font-feature-settings:normal;text-align:start;letter-spacing:0.015875px;writing-mode:lr-tb;text-anchor:start;fill:#000000;stroke-width:0.26458332px"
             id="path5788"
             inkscape:connector-curvature="0" />
          <path
             d="m 44.566273,364.81015 q 0.296157,0 0.535516,-0.0933 0.23936,-0.0974 0.405695,-0.25964 0.166334,-0.16634 0.255587,-0.38541 0.09331,-0.22314 0.09331,-0.47872 v -0.008 q 0,-0.25153 -0.09331,-0.47466 -0.08925,-0.22313 -0.255587,-0.38947 -0.166335,-0.16633 -0.405695,-0.2637 -0.239359,-0.0974 -0.535516,-0.0974 h -0.734307 v 2.45039 z m -0.945268,-2.64513 h 0.945268 q 0.332669,0 0.608541,0.10954 0.279929,0.10548 0.47872,0.29616 0.202847,0.19067 0.312384,0.45032 0.109538,0.25558 0.109538,0.5558 v 0.008 q 0,0.30022 -0.109538,0.55986 -0.109537,0.25965 -0.312384,0.45032 -0.198791,0.19068 -0.47872,0.30022 -0.275872,0.10953 -0.608541,0.10953 h -0.945268 z"
             style="font-style:normal;font-variant:normal;font-weight:normal;font-stretch:normal;font-size:4.05694437px;font-family:'Gotham Light';-inkscape-font-specification:'Gotham Light, ';font-variant-ligatures:normal;font-variant-caps:normal;font-variant-numeric:normal;font-feature-settings:normal;text-align:start;letter-spacing:0.015875px;writing-mode:lr-tb;text-anchor:start;fill:#000000;stroke-width:0.26458332px"
             id="path5790"
             inkscape:connector-curvature="0" />
          <path
             d="m 46.806367,362.16502 h 2.020359 v 0.19474 h -1.809397 v 1.11565 h 1.626834 v 0.19474 h -1.626834 v 1.14 h 1.829681 v 0.19473 h -2.040643 z"
             style="font-style:normal;font-variant:normal;font-weight:normal;font-stretch:normal;font-size:4.05694437px;font-family:'Gotham Light';-inkscape-font-specification:'Gotham Light, ';font-variant-ligatures:normal;font-variant-caps:normal;font-variant-numeric:normal;font-feature-settings:normal;text-align:start;letter-spacing:0.015875px;writing-mode:lr-tb;text-anchor:start;fill:#000000;stroke-width:0.26458332px"
             id="path5792"
             inkscape:connector-curvature="0" />
          <path
             d="m 49.540078,362.16502 h 0.210961 v 2.64513 h 1.667404 v 0.19473 h -1.878365 z"
             style="font-style:normal;font-variant:normal;font-weight:normal;font-stretch:normal;font-size:4.05694437px;font-family:'Gotham Light';-inkscape-font-specification:'Gotham Light, ';font-variant-ligatures:normal;font-variant-caps:normal;font-variant-numeric:normal;font-feature-settings:normal;text-align:start;letter-spacing:0.015875px;writing-mode:lr-tb;text-anchor:start;fill:#000000;stroke-width:0.26458332px"
             id="path5794"
             inkscape:connector-curvature="0" />
          <path
             d="m 53.309196,364.81015 q 0.365125,0 0.580143,-0.15416 0.215019,-0.15823 0.215019,-0.42598 v -0.008 q 0,-0.2637 -0.223132,-0.40569 -0.219075,-0.14605 -0.640998,-0.14605 h -0.961495 v 1.14 z m -0.09331,-1.33474 q 0.158221,0 0.2921,-0.0365 0.133879,-0.0406 0.231246,-0.11359 0.09737,-0.073 0.150106,-0.18256 0.0568,-0.10954 0.0568,-0.25154 v -0.008 q 0,-0.2353 -0.182563,-0.37729 -0.182562,-0.14605 -0.527403,-0.14605 h -0.957438 v 1.11565 z m -1.148116,-1.31039 h 1.172457 q 0.243417,0 0.430036,0.069 0.190677,0.0649 0.308328,0.18256 0.182563,0.18256 0.182563,0.44627 v 0.008 q 0,0.14605 -0.04463,0.25559 -0.04057,0.10954 -0.109537,0.19067 -0.06897,0.0811 -0.158221,0.13794 -0.0852,0.0527 -0.170392,0.0892 0.125766,0.0325 0.243417,0.0893 0.117651,0.0527 0.202847,0.13793 0.08925,0.0811 0.141993,0.19474 0.05274,0.10953 0.05274,0.25558 v 0.008 q 0,0.1785 -0.07303,0.32455 -0.07302,0.142 -0.206905,0.24342 -0.133879,0.0974 -0.320498,0.15416 -0.18662,0.0527 -0.417865,0.0527 h -1.233312 z"
             style="font-style:normal;font-variant:normal;font-weight:normal;font-stretch:normal;font-size:4.05694437px;font-family:'Gotham Light';-inkscape-font-specification:'Gotham Light, ';font-variant-ligatures:normal;font-variant-caps:normal;font-variant-numeric:normal;font-feature-settings:normal;text-align:start;letter-spacing:0.015875px;writing-mode:lr-tb;text-anchor:start;fill:#000000;stroke-width:0.26458332px"
             id="path5796"
             inkscape:connector-curvature="0" />
          <path
             d="m 55.015422,362.16502 h 2.020359 v 0.19474 h -1.809398 v 1.11565 h 1.626835 v 0.19474 h -1.626835 v 1.14 h 1.829682 v 0.19473 h -2.040643 z"
             style="font-style:normal;font-variant:normal;font-weight:normal;font-stretch:normal;font-size:4.05694437px;font-family:'Gotham Light';-inkscape-font-specification:'Gotham Light, ';font-variant-ligatures:normal;font-variant-caps:normal;font-variant-numeric:normal;font-feature-settings:normal;text-align:start;letter-spacing:0.015875px;writing-mode:lr-tb;text-anchor:start;fill:#000000;stroke-width:0.26458332px"
             id="path5798"
             inkscape:connector-curvature="0" />
          <path
             d="m 58.917534,363.63769 q 0.178505,0 0.328612,-0.0446 0.154164,-0.0446 0.263701,-0.12577 0.109538,-0.0852 0.170392,-0.20285 0.06491,-0.1217 0.06491,-0.27587 v -0.008 q 0,-0.28805 -0.215018,-0.45438 -0.210961,-0.16633 -0.600428,-0.16633 h -0.969609 v 1.27793 z m -1.1684,-1.47267 h 1.192741 q 0.263702,0 0.466549,0.0771 0.202847,0.073 0.332669,0.20285 0.101424,0.10142 0.158221,0.23936 0.0568,0.13388 0.0568,0.28804 v 0.008 q 0,0.1785 -0.06491,0.3205 -0.06085,0.13793 -0.174448,0.23936 -0.109538,0.10142 -0.263702,0.16633 -0.150107,0.0609 -0.328612,0.0852 l 0.937154,1.21302 h -0.267758 l -0.904699,-1.17651 h -0.0081 -0.920926 v 1.17651 h -0.210961 z"
             style="font-style:normal;font-variant:normal;font-weight:normal;font-stretch:normal;font-size:4.05694437px;font-family:'Gotham Light';-inkscape-font-specification:'Gotham Light, ';font-variant-ligatures:normal;font-variant-caps:normal;font-variant-numeric:normal;font-feature-settings:normal;text-align:start;letter-spacing:0.015875px;writing-mode:lr-tb;text-anchor:start;fill:#000000;stroke-width:0.26458332px"
             id="path5800"
             inkscape:connector-curvature="0" />
          <path
             d="m 61.999064,365.05357 q -0.336727,0 -0.604485,-0.1136 -0.263701,-0.11765 -0.446264,-0.31644 -0.182562,-0.19879 -0.279929,-0.46249 -0.09737,-0.26776 -0.09737,-0.56797 v -0.008 q 0,-0.28804 0.09737,-0.55174 0.101424,-0.26776 0.283986,-0.47061 0.186619,-0.20284 0.446264,-0.32455 0.259644,-0.12171 0.576086,-0.12171 0.174449,0 0.316442,0.0243 0.14605,0.0243 0.267758,0.073 0.125765,0.0487 0.235303,0.11765 0.113594,0.069 0.219075,0.15822 l -0.137936,0.15822 q -0.166335,-0.14605 -0.381353,-0.24342 -0.210961,-0.0974 -0.53146,-0.0974 -0.259644,0 -0.474662,0.10143 -0.215018,0.10142 -0.373239,0.27587 -0.154164,0.17445 -0.23936,0.4057 -0.0852,0.23124 -0.0852,0.48683 v 0.008 q 0,0.27587 0.08114,0.51118 0.0852,0.2353 0.243417,0.40569 0.158221,0.17039 0.381353,0.26776 0.227188,0.0974 0.511175,0.0974 0.133879,0 0.263701,-0.0243 0.129822,-0.0284 0.243417,-0.073 0.117651,-0.0446 0.219075,-0.10142 0.101423,-0.0609 0.178505,-0.12577 v -0.81544 h -0.949325 v -0.19474 h 1.152172 v 1.09538 q -0.194733,0.17039 -0.482776,0.30021 -0.283986,0.12577 -0.632883,0.12577 z"
             style="font-style:normal;font-variant:normal;font-weight:normal;font-stretch:normal;font-size:4.05694437px;font-family:'Gotham Light';-inkscape-font-specification:'Gotham Light, ';font-variant-ligatures:normal;font-variant-caps:normal;font-variant-numeric:normal;font-feature-settings:normal;text-align:start;letter-spacing:0.015875px;writing-mode:lr-tb;text-anchor:start;fill:#000000;stroke-width:0.26458332px"
             id="path5802"
             inkscape:connector-curvature="0" />
          <path
             d="m 65.154598,362.16502 h 0.210961 v 2.83986 h -0.210961 z"
             style="font-style:normal;font-variant:normal;font-weight:normal;font-stretch:normal;font-size:4.05694437px;font-family:'Gotham Light';-inkscape-font-specification:'Gotham Light, ';font-variant-ligatures:normal;font-variant-caps:normal;font-variant-numeric:normal;font-feature-settings:normal;text-align:start;letter-spacing:0.015875px;writing-mode:lr-tb;text-anchor:start;fill:#000000;stroke-width:0.26458332px"
             id="path5804"
             inkscape:connector-curvature="0" />
          <path
             d="m 66.251396,362.16502 h 0.19879 l 1.959504,2.47068 v -2.47068 h 0.202847 v 2.83986 h -0.15822 l -2.000074,-2.52342 v 2.52342 h -0.202847 z"
             style="font-style:normal;font-variant:normal;font-weight:normal;font-stretch:normal;font-size:4.05694437px;font-family:'Gotham Light';-inkscape-font-specification:'Gotham Light, ';font-variant-ligatures:normal;font-variant-caps:normal;font-variant-numeric:normal;font-feature-settings:normal;text-align:start;letter-spacing:0.015875px;writing-mode:lr-tb;text-anchor:start;fill:#000000;stroke-width:0.26458332px"
             id="path5806"
             inkscape:connector-curvature="0" />
          <path
             d="m 70.42995,365.04545 q -0.340784,0 -0.616656,-0.11359 -0.271815,-0.1136 -0.527403,-0.34079 l 0.137937,-0.15822 q 0.117651,0.10954 0.231245,0.19068 0.117652,0.0771 0.23936,0.12982 0.121708,0.0487 0.255588,0.0771 0.133879,0.0244 0.2921,0.0244 0.15822,0 0.2921,-0.0406 0.133879,-0.0446 0.227188,-0.11765 0.09331,-0.0771 0.14605,-0.17851 0.05274,-0.10548 0.05274,-0.22719 v -0.008 q 0,-0.1136 -0.03651,-0.20285 -0.03245,-0.0892 -0.125765,-0.16228 -0.08925,-0.073 -0.243417,-0.12982 -0.154164,-0.0609 -0.39758,-0.10954 -0.255588,-0.0527 -0.43815,-0.12171 -0.182563,-0.073 -0.300214,-0.16633 -0.113595,-0.0974 -0.166335,-0.22313 -0.05274,-0.12577 -0.05274,-0.28805 v -0.008 q 0,-0.15822 0.06897,-0.2921 0.06897,-0.13794 0.190676,-0.23936 0.121709,-0.10142 0.288043,-0.15822 0.166335,-0.0568 0.365125,-0.0568 0.308328,0 0.53146,0.0852 0.227189,0.0852 0.442207,0.25964 l -0.133879,0.16634 q -0.202847,-0.17445 -0.409752,-0.24748 -0.202847,-0.073 -0.43815,-0.073 -0.15822,0 -0.288043,0.0446 -0.125765,0.0406 -0.219075,0.11359 -0.08925,0.073 -0.137936,0.17039 -0.04868,0.0974 -0.04868,0.20691 v 0.008 q 0,0.11359 0.03246,0.2069 0.03651,0.0893 0.125766,0.16634 0.09331,0.073 0.255587,0.13388 0.162278,0.0609 0.413809,0.11359 0.494947,0.10143 0.714022,0.28804 0.219075,0.18257 0.219075,0.49495 v 0.008 q 0,0.17039 -0.07303,0.31644 -0.06897,0.14199 -0.194734,0.24341 -0.121708,0.10143 -0.296156,0.15823 -0.170392,0.0568 -0.377296,0.0568 z"
             style="font-style:normal;font-variant:normal;font-weight:normal;font-stretch:normal;font-size:4.05694437px;font-family:'Gotham Light';-inkscape-font-specification:'Gotham Light, ';font-variant-ligatures:normal;font-variant-caps:normal;font-variant-numeric:normal;font-feature-settings:normal;text-align:start;letter-spacing:0.015875px;writing-mode:lr-tb;text-anchor:start;fill:#000000;stroke-width:0.26458332px"
             id="path5808"
             inkscape:connector-curvature="0" />
          <path
             d="M 72.870354,362.35976 H 71.88046 v -0.19474 h 2.19075 v 0.19474 h -0.989895 v 2.64512 h -0.210961 z"
             style="font-style:normal;font-variant:normal;font-weight:normal;font-stretch:normal;font-size:4.05694437px;font-family:'Gotham Light';-inkscape-font-specification:'Gotham Light, ';font-variant-ligatures:normal;font-variant-caps:normal;font-variant-numeric:normal;font-feature-settings:normal;text-align:start;letter-spacing:0.015875px;writing-mode:lr-tb;text-anchor:start;fill:#000000;stroke-width:0.26458332px"
             id="path5810"
             inkscape:connector-curvature="0" />
          <path
             d="m 74.758255,362.16502 h 0.210961 v 2.83986 h -0.210961 z"
             style="font-style:normal;font-variant:normal;font-weight:normal;font-stretch:normal;font-size:4.05694437px;font-family:'Gotham Light';-inkscape-font-specification:'Gotham Light, ';font-variant-ligatures:normal;font-variant-caps:normal;font-variant-numeric:normal;font-feature-settings:normal;text-align:start;letter-spacing:0.015875px;writing-mode:lr-tb;text-anchor:start;fill:#000000;stroke-width:0.26458332px"
             id="path5812"
             inkscape:connector-curvature="0" />
          <path
             d="m 76.642102,362.35976 h -0.989895 v -0.19474 h 2.19075 v 0.19474 h -0.989894 v 2.64512 h -0.210961 z"
             style="font-style:normal;font-variant:normal;font-weight:normal;font-stretch:normal;font-size:4.05694437px;font-family:'Gotham Light';-inkscape-font-specification:'Gotham Light, ';font-variant-ligatures:normal;font-variant-caps:normal;font-variant-numeric:normal;font-feature-settings:normal;text-align:start;letter-spacing:0.015875px;writing-mode:lr-tb;text-anchor:start;fill:#000000;stroke-width:0.26458332px"
             id="path5814"
             inkscape:connector-curvature="0" />
          <path
             d="m 79.62132,365.04951 q -0.255587,0 -0.470605,-0.0771 -0.210961,-0.0811 -0.369182,-0.23531 -0.154164,-0.15822 -0.23936,-0.38541 -0.0852,-0.22718 -0.0852,-0.5274 V 362.165 h 0.210961 v 1.63901 q 0,0.50712 0.251531,0.78299 0.255587,0.27181 0.709965,0.27181 0.215018,0 0.389467,-0.0649 0.174448,-0.0649 0.296157,-0.19473 0.125765,-0.12982 0.190676,-0.32456 0.06897,-0.19473 0.06897,-0.45032 v -1.65929 h 0.210961 v 1.63495 q 0,0.30427 -0.0852,0.53957 -0.08519,0.23125 -0.239359,0.38947 -0.154164,0.15822 -0.369182,0.23936 -0.210961,0.0811 -0.470606,0.0811 z"
             style="font-style:normal;font-variant:normal;font-weight:normal;font-stretch:normal;font-size:4.05694437px;font-family:'Gotham Light';-inkscape-font-specification:'Gotham Light, ';font-variant-ligatures:normal;font-variant-caps:normal;font-variant-numeric:normal;font-feature-settings:normal;text-align:start;letter-spacing:0.015875px;writing-mode:lr-tb;text-anchor:start;fill:#000000;stroke-width:0.26458332px"
             id="path5816"
             inkscape:connector-curvature="0" />
          <path
             d="m 82.386853,362.35976 h -0.989895 v -0.19474 h 2.19075 v 0.19474 h -0.989894 v 2.64512 h -0.210961 z"
             style="font-style:normal;font-variant:normal;font-weight:normal;font-stretch:normal;font-size:4.05694437px;font-family:'Gotham Light';-inkscape-font-specification:'Gotham Light, ';font-variant-ligatures:normal;font-variant-caps:normal;font-variant-numeric:normal;font-feature-settings:normal;text-align:start;letter-spacing:0.015875px;writing-mode:lr-tb;text-anchor:start;fill:#000000;stroke-width:0.26458332px"
             id="path5818"
             inkscape:connector-curvature="0" />
          <path
             d="m 84.246355,362.16502 h 2.020358 v 0.19474 h -1.809397 v 1.11565 h 1.626834 v 0.19474 h -1.626834 v 1.14 h 1.829682 v 0.19473 h -2.040643 z"
             style="font-style:normal;font-variant:normal;font-weight:normal;font-stretch:normal;font-size:4.05694437px;font-family:'Gotham Light';-inkscape-font-specification:'Gotham Light, ';font-variant-ligatures:normal;font-variant-caps:normal;font-variant-numeric:normal;font-feature-settings:normal;text-align:start;letter-spacing:0.015875px;writing-mode:lr-tb;text-anchor:start;fill:#000000;stroke-width:0.26458332px"
             id="path5820"
             inkscape:connector-curvature="0" />
        </g>
        <g
           aria-label="FOR GEOINFORMATION"
           style="font-style:normal;font-variant:normal;font-weight:normal;font-stretch:normal;font-size:10.58333397px;line-height:0.33072919px;font-family:'Gotham Medium';-inkscape-font-specification:'Gotham Medium, ';letter-spacing:0.33866665px;word-spacing:0px;clip-rule:evenodd;fill:#000000;fill-opacity:1;fill-rule:evenodd;stroke:none;stroke-width:0.26458332px;stroke-linecap:butt;stroke-linejoin:miter;stroke-opacity:1;image-rendering:optimizeQuality;shape-rendering:geometricPrecision;text-rendering:geometricPrecision"
           id="g5858">
          <path
             d="m 36.663896,367.0912 h 2.000074 v 0.19473 h -1.789113 v 1.16435 h 1.60655 v 0.19473 h -1.60655 v 1.28605 h -0.210961 z"
             style="font-style:normal;font-variant:normal;font-weight:normal;font-stretch:normal;font-size:4.05694437px;font-family:'Gotham Light';-inkscape-font-specification:'Gotham Light, ';font-variant-ligatures:normal;font-variant-caps:normal;font-variant-numeric:normal;font-feature-settings:normal;text-align:start;letter-spacing:0.02362569px;writing-mode:lr-tb;text-anchor:start;stroke-width:0.26458332px"
             id="path5824"
             inkscape:connector-curvature="0" />
          <path
             d="m 40.656228,369.78907 q 0.263701,0 0.482776,-0.0974 0.223132,-0.10142 0.381353,-0.27181 0.162277,-0.17445 0.25153,-0.4057 0.08925,-0.23124 0.08925,-0.49495 v -0.008 q 0,-0.2637 -0.09331,-0.49495 -0.08925,-0.2353 -0.25153,-0.40569 -0.158221,-0.17445 -0.381353,-0.27587 -0.223132,-0.10143 -0.486833,-0.10143 -0.263702,0 -0.486834,0.10143 -0.219075,0.0974 -0.381352,0.27181 -0.158221,0.17039 -0.247474,0.40164 -0.08925,0.23124 -0.08925,0.49495 v 0.008 q 0,0.2637 0.08925,0.499 0.09331,0.23125 0.25153,0.4057 0.162278,0.17039 0.38541,0.27181 0.223132,0.10143 0.486834,0.10143 z m -0.0081,0.19067 q -0.324556,0 -0.588257,-0.11765 -0.259645,-0.12171 -0.446264,-0.3205 -0.18662,-0.20284 -0.288043,-0.46654 -0.101424,-0.26371 -0.101424,-0.55581 v -0.008 q 0,-0.2921 0.101424,-0.5558 0.10548,-0.26776 0.2921,-0.47061 0.186619,-0.20284 0.450321,-0.3205 0.263701,-0.1217 0.588257,-0.1217 0.320498,0 0.5842,0.1217 0.263701,0.11766 0.45032,0.3205 0.18662,0.19879 0.288043,0.46249 0.101424,0.26371 0.101424,0.55581 0.0041,0.004 0,0.008 0,0.2921 -0.105481,0.55986 -0.101423,0.2637 -0.288043,0.46655 -0.186619,0.20284 -0.454377,0.32455 -0.263702,0.11765 -0.5842,0.11765 z"
             style="font-style:normal;font-variant:normal;font-weight:normal;font-stretch:normal;font-size:4.05694437px;font-family:'Gotham Light';-inkscape-font-specification:'Gotham Light, ';font-variant-ligatures:normal;font-variant-caps:normal;font-variant-numeric:normal;font-feature-settings:normal;text-align:start;letter-spacing:0.02362569px;writing-mode:lr-tb;text-anchor:start;stroke-width:0.26458332px"
             id="path5826"
             inkscape:connector-curvature="0" />
          <path
             d="m 43.988735,368.56387 q 0.178505,0 0.328612,-0.0446 0.154164,-0.0446 0.263702,-0.12576 0.109537,-0.0852 0.170391,-0.20285 0.06491,-0.12171 0.06491,-0.27587 v -0.008 q 0,-0.28805 -0.215019,-0.45438 -0.210961,-0.16634 -0.600427,-0.16634 h -0.96961 v 1.27794 z m -1.1684,-1.47267 h 1.192742 q 0.263701,0 0.466548,0.0771 0.202847,0.073 0.33267,0.20285 0.101423,0.10142 0.15822,0.23936 0.0568,0.13388 0.0568,0.28804 v 0.008 q 0,0.1785 -0.06491,0.32049 -0.06085,0.13794 -0.174449,0.23936 -0.109538,0.10143 -0.263701,0.16634 -0.150107,0.0609 -0.328613,0.0852 l 0.937154,1.21303 h -0.267758 l -0.904699,-1.17651 h -0.0081 -0.920926 v 1.17651 h -0.210961 z"
             style="font-style:normal;font-variant:normal;font-weight:normal;font-stretch:normal;font-size:4.05694437px;font-family:'Gotham Light';-inkscape-font-specification:'Gotham Light, ';font-variant-ligatures:normal;font-variant-caps:normal;font-variant-numeric:normal;font-feature-settings:normal;text-align:start;letter-spacing:0.02362569px;writing-mode:lr-tb;text-anchor:start;stroke-width:0.26458332px"
             id="path5828"
             inkscape:connector-curvature="0" />
          <path
             d="m 48.321895,369.97974 q -0.336727,0 -0.604485,-0.11359 -0.263701,-0.11765 -0.446264,-0.31644 -0.182562,-0.19879 -0.279929,-0.46249 -0.09737,-0.26776 -0.09737,-0.56798 v -0.008 q 0,-0.28804 0.09737,-0.55174 0.101424,-0.26776 0.283986,-0.47061 0.18662,-0.20285 0.446264,-0.32456 0.259644,-0.1217 0.576086,-0.1217 0.174449,0 0.316442,0.0243 0.14605,0.0243 0.267758,0.073 0.125765,0.0487 0.235303,0.11765 0.113594,0.069 0.219075,0.15823 l -0.137936,0.15822 q -0.166335,-0.14605 -0.381353,-0.24342 -0.210961,-0.0974 -0.53146,-0.0974 -0.259644,0 -0.474662,0.10143 -0.215018,0.10142 -0.373239,0.27587 -0.154164,0.17445 -0.23936,0.40569 -0.0852,0.23125 -0.0852,0.48684 v 0.008 q 0,0.27587 0.08114,0.51118 0.0852,0.2353 0.243417,0.40569 0.158221,0.17039 0.381353,0.26776 0.227189,0.0974 0.511175,0.0974 0.133879,0 0.263701,-0.0243 0.129822,-0.0284 0.243417,-0.073 0.117651,-0.0446 0.219075,-0.10143 0.101423,-0.0609 0.178505,-0.12576 v -0.81545 h -0.949325 v -0.19473 h 1.152173 v 1.09537 q -0.194734,0.1704 -0.482777,0.30022 -0.283986,0.12576 -0.632883,0.12576 z"
             style="font-style:normal;font-variant:normal;font-weight:normal;font-stretch:normal;font-size:4.05694437px;font-family:'Gotham Light';-inkscape-font-specification:'Gotham Light, ';font-variant-ligatures:normal;font-variant-caps:normal;font-variant-numeric:normal;font-feature-settings:normal;text-align:start;letter-spacing:0.02362569px;writing-mode:lr-tb;text-anchor:start;stroke-width:0.26458332px"
             id="path5830"
             inkscape:connector-curvature="0" />
          <path
             d="m 50.220653,367.0912 h 2.020358 v 0.19473 h -1.809397 v 1.11566 h 1.626835 v 0.19474 h -1.626835 v 1.14 h 1.829682 v 0.19473 h -2.040643 z"
             style="font-style:normal;font-variant:normal;font-weight:normal;font-stretch:normal;font-size:4.05694437px;font-family:'Gotham Light';-inkscape-font-specification:'Gotham Light, ';font-variant-ligatures:normal;font-variant-caps:normal;font-variant-numeric:normal;font-feature-settings:normal;text-align:start;letter-spacing:0.02362569px;writing-mode:lr-tb;text-anchor:start;stroke-width:0.26458332px"
             id="path5832"
             inkscape:connector-curvature="0" />
          <path
             d="m 54.26845,369.78907 q 0.263701,0 0.482776,-0.0974 0.223132,-0.10142 0.381353,-0.27181 0.162278,-0.17445 0.251531,-0.4057 0.08925,-0.23124 0.08925,-0.49495 v -0.008 q 0,-0.2637 -0.09331,-0.49495 -0.08925,-0.2353 -0.251531,-0.40569 -0.158221,-0.17445 -0.381353,-0.27587 -0.223132,-0.10143 -0.486833,-0.10143 -0.263701,0 -0.486833,0.10143 -0.219075,0.0974 -0.381353,0.27181 -0.158221,0.17039 -0.247474,0.40164 -0.08925,0.23124 -0.08925,0.49495 v 0.008 q 0,0.2637 0.08925,0.499 0.09331,0.23125 0.251531,0.4057 0.162278,0.17039 0.38541,0.27181 0.223132,0.10143 0.486833,0.10143 z m -0.0081,0.19067 q -0.324555,0 -0.588257,-0.11765 -0.259644,-0.12171 -0.446264,-0.3205 -0.186619,-0.20284 -0.288043,-0.46654 -0.101423,-0.26371 -0.101423,-0.55581 v -0.008 q 0,-0.2921 0.101423,-0.5558 0.105481,-0.26776 0.2921,-0.47061 0.18662,-0.20284 0.450321,-0.3205 0.263701,-0.1217 0.588257,-0.1217 0.320499,0 0.5842,0.1217 0.263701,0.11766 0.450321,0.3205 0.186619,0.19879 0.288043,0.46249 0.101423,0.26371 0.101423,0.55581 0.0041,0.004 0,0.008 0,0.2921 -0.10548,0.55986 -0.101424,0.2637 -0.288043,0.46655 -0.18662,0.20284 -0.454378,0.32455 -0.263701,0.11765 -0.5842,0.11765 z"
             style="font-style:normal;font-variant:normal;font-weight:normal;font-stretch:normal;font-size:4.05694437px;font-family:'Gotham Light';-inkscape-font-specification:'Gotham Light, ';font-variant-ligatures:normal;font-variant-caps:normal;font-variant-numeric:normal;font-feature-settings:normal;text-align:start;letter-spacing:0.02362569px;writing-mode:lr-tb;text-anchor:start;stroke-width:0.26458332px"
             id="path5834"
             inkscape:connector-curvature="0" />
          <path
             d="m 56.460956,367.0912 h 0.210961 v 2.83986 h -0.210961 z"
             style="font-style:normal;font-variant:normal;font-weight:normal;font-stretch:normal;font-size:4.05694437px;font-family:'Gotham Light';-inkscape-font-specification:'Gotham Light, ';font-variant-ligatures:normal;font-variant-caps:normal;font-variant-numeric:normal;font-feature-settings:normal;text-align:start;letter-spacing:0.02362569px;writing-mode:lr-tb;text-anchor:start;stroke-width:0.26458332px"
             id="path5836"
             inkscape:connector-curvature="0" />
          <path
             d="m 57.565504,367.0912 h 0.19879 l 1.959504,2.47068 v -2.47068 h 0.202847 v 2.83986 h -0.158221 l -2.000073,-2.52342 v 2.52342 h -0.202847 z"
             style="font-style:normal;font-variant:normal;font-weight:normal;font-stretch:normal;font-size:4.05694437px;font-family:'Gotham Light';-inkscape-font-specification:'Gotham Light, ';font-variant-ligatures:normal;font-variant-caps:normal;font-variant-numeric:normal;font-feature-settings:normal;text-align:start;letter-spacing:0.02362569px;writing-mode:lr-tb;text-anchor:start;stroke-width:0.26458332px"
             id="path5838"
             inkscape:connector-curvature="0" />
          <path
             d="m 60.790313,367.0912 h 2.000074 v 0.19473 h -1.789113 v 1.16435 h 1.60655 v 0.19473 h -1.60655 v 1.28605 h -0.210961 z"
             style="font-style:normal;font-variant:normal;font-weight:normal;font-stretch:normal;font-size:4.05694437px;font-family:'Gotham Light';-inkscape-font-specification:'Gotham Light, ';font-variant-ligatures:normal;font-variant-caps:normal;font-variant-numeric:normal;font-feature-settings:normal;text-align:start;letter-spacing:0.02362569px;writing-mode:lr-tb;text-anchor:start;stroke-width:0.26458332px"
             id="path5840"
             inkscape:connector-curvature="0" />
          <path
             d="m 64.782644,369.78907 q 0.263702,0 0.482777,-0.0974 0.223132,-0.10142 0.381353,-0.27181 0.162277,-0.17445 0.25153,-0.4057 0.08925,-0.23124 0.08925,-0.49495 v -0.008 q 0,-0.2637 -0.09331,-0.49495 -0.08925,-0.2353 -0.25153,-0.40569 -0.158221,-0.17445 -0.381353,-0.27587 -0.223132,-0.10143 -0.486833,-0.10143 -0.263702,0 -0.486834,0.10143 -0.219075,0.0974 -0.381353,0.27181 -0.15822,0.17039 -0.247473,0.40164 -0.08925,0.23124 -0.08925,0.49495 v 0.008 q 0,0.2637 0.08925,0.499 0.09331,0.23125 0.25153,0.4057 0.162278,0.17039 0.38541,0.27181 0.223132,0.10143 0.486833,0.10143 z m -0.0081,0.19067 q -0.324556,0 -0.588257,-0.11765 -0.259645,-0.12171 -0.446264,-0.3205 -0.18662,-0.20284 -0.288043,-0.46654 -0.101424,-0.26371 -0.101424,-0.55581 v -0.008 q 0,-0.2921 0.101424,-0.5558 0.10548,-0.26776 0.2921,-0.47061 0.186619,-0.20284 0.450321,-0.3205 0.263701,-0.1217 0.588256,-0.1217 0.320499,0 0.5842,0.1217 0.263702,0.11766 0.450321,0.3205 0.18662,0.19879 0.288043,0.46249 0.101424,0.26371 0.101424,0.55581 0.0041,0.004 0,0.008 0,0.2921 -0.105481,0.55986 -0.101423,0.2637 -0.288043,0.46655 -0.186619,0.20284 -0.454377,0.32455 -0.263702,0.11765 -0.5842,0.11765 z"
             style="font-style:normal;font-variant:normal;font-weight:normal;font-stretch:normal;font-size:4.05694437px;font-family:'Gotham Light';-inkscape-font-specification:'Gotham Light, ';font-variant-ligatures:normal;font-variant-caps:normal;font-variant-numeric:normal;font-feature-settings:normal;text-align:start;letter-spacing:0.02362569px;writing-mode:lr-tb;text-anchor:start;stroke-width:0.26458332px"
             id="path5842"
             inkscape:connector-curvature="0" />
          <path
             d="m 68.115152,368.56387 q 0.178506,0 0.328613,-0.0446 0.154163,-0.0446 0.263701,-0.12576 0.109537,-0.0852 0.170392,-0.20285 0.06491,-0.12171 0.06491,-0.27587 v -0.008 q 0,-0.28805 -0.215018,-0.45438 -0.210961,-0.16634 -0.600428,-0.16634 h -0.96961 v 1.27794 z m -1.1684,-1.47267 h 1.192742 q 0.263701,0 0.466548,0.0771 0.202848,0.073 0.33267,0.20285 0.101423,0.10142 0.158221,0.23936 0.0568,0.13388 0.0568,0.28804 v 0.008 q 0,0.1785 -0.06491,0.32049 -0.06085,0.13794 -0.174449,0.23936 -0.109537,0.10143 -0.263701,0.16634 -0.150107,0.0609 -0.328613,0.0852 l 0.937154,1.21303 h -0.267758 l -0.904699,-1.17651 h -0.0081 -0.920927 v 1.17651 h -0.210961 z"
             style="font-style:normal;font-variant:normal;font-weight:normal;font-stretch:normal;font-size:4.05694437px;font-family:'Gotham Light';-inkscape-font-specification:'Gotham Light, ';font-variant-ligatures:normal;font-variant-caps:normal;font-variant-numeric:normal;font-feature-settings:normal;text-align:start;letter-spacing:0.02362569px;writing-mode:lr-tb;text-anchor:start;stroke-width:0.26458332px"
             id="path5844"
             inkscape:connector-curvature="0" />
          <path
             d="m 69.902154,367.0912 h 0.198791 l 1.140001,1.67957 1.140001,-1.67957 h 0.198791 v 2.83986 h -0.210961 v -2.46662 l -1.123774,1.63495 h -0.01623 L 70.105,367.46444 v 2.46662 h -0.202848 z"
             style="font-style:normal;font-variant:normal;font-weight:normal;font-stretch:normal;font-size:4.05694437px;font-family:'Gotham Light';-inkscape-font-specification:'Gotham Light, ';font-variant-ligatures:normal;font-variant-caps:normal;font-variant-numeric:normal;font-feature-settings:normal;text-align:start;letter-spacing:0.02362569px;writing-mode:lr-tb;text-anchor:start;stroke-width:0.26458332px"
             id="path5846"
             inkscape:connector-curvature="0" />
          <path
             d="m 75.366902,368.94522 -0.746478,-1.64306 -0.750535,1.64306 z m -0.843845,-1.8743 h 0.202848 l 1.322563,2.86014 h -0.231245 l -0.361068,-0.79516 h -1.675518 l -0.361069,0.79516 h -0.219075 z"
             style="font-style:normal;font-variant:normal;font-weight:normal;font-stretch:normal;font-size:4.05694437px;font-family:'Gotham Light';-inkscape-font-specification:'Gotham Light, ';font-variant-ligatures:normal;font-variant-caps:normal;font-variant-numeric:normal;font-feature-settings:normal;text-align:start;letter-spacing:0.02362569px;writing-mode:lr-tb;text-anchor:start;stroke-width:0.26458332px"
             id="path5848"
             inkscape:connector-curvature="0" />
          <path
             d="m 77.455765,367.28593 h -0.989894 v -0.19473 h 2.19075 v 0.19473 h -0.989895 v 2.64513 h -0.210961 z"
             style="font-style:normal;font-variant:normal;font-weight:normal;font-stretch:normal;font-size:4.05694437px;font-family:'Gotham Light';-inkscape-font-specification:'Gotham Light, ';font-variant-ligatures:normal;font-variant-caps:normal;font-variant-numeric:normal;font-feature-settings:normal;text-align:start;letter-spacing:0.02362569px;writing-mode:lr-tb;text-anchor:start;stroke-width:0.26458332px"
             id="path5850"
             inkscape:connector-curvature="0" />
          <path
             d="m 79.351417,367.0912 h 0.210961 v 2.83986 h -0.210961 z"
             style="font-style:normal;font-variant:normal;font-weight:normal;font-stretch:normal;font-size:4.05694437px;font-family:'Gotham Light';-inkscape-font-specification:'Gotham Light, ';font-variant-ligatures:normal;font-variant-caps:normal;font-variant-numeric:normal;font-feature-settings:normal;text-align:start;letter-spacing:0.02362569px;writing-mode:lr-tb;text-anchor:start;stroke-width:0.26458332px"
             id="path5852"
             inkscape:connector-curvature="0" />
          <path
             d="m 81.762301,369.78907 q 0.263701,0 0.482776,-0.0974 0.223132,-0.10142 0.381353,-0.27181 0.162278,-0.17445 0.25153,-0.4057 0.08925,-0.23124 0.08925,-0.49495 v -0.008 q 0,-0.2637 -0.09331,-0.49495 -0.08925,-0.2353 -0.25153,-0.40569 -0.158221,-0.17445 -0.381353,-0.27587 -0.223132,-0.10143 -0.486833,-0.10143 -0.263702,0 -0.486834,0.10143 -0.219075,0.0974 -0.381352,0.27181 -0.158221,0.17039 -0.247474,0.40164 -0.08925,0.23124 -0.08925,0.49495 v 0.008 q 0,0.2637 0.08925,0.499 0.09331,0.23125 0.251531,0.4057 0.162277,0.17039 0.385409,0.27181 0.223132,0.10143 0.486834,0.10143 z m -0.0081,0.19067 q -0.324556,0 -0.588257,-0.11765 -0.259645,-0.12171 -0.446264,-0.3205 -0.186619,-0.20284 -0.288043,-0.46654 -0.101424,-0.26371 -0.101424,-0.55581 v -0.008 q 0,-0.2921 0.101424,-0.5558 0.10548,-0.26776 0.2921,-0.47061 0.186619,-0.20284 0.450321,-0.3205 0.263701,-0.1217 0.588257,-0.1217 0.320498,0 0.5842,0.1217 0.263701,0.11766 0.45032,0.3205 0.18662,0.19879 0.288044,0.46249 0.101423,0.26371 0.101423,0.55581 0.0041,0.004 0,0.008 0,0.2921 -0.10548,0.55986 -0.101424,0.2637 -0.288043,0.46655 -0.18662,0.20284 -0.454378,0.32455 -0.263702,0.11765 -0.5842,0.11765 z"
             style="font-style:normal;font-variant:normal;font-weight:normal;font-stretch:normal;font-size:4.05694437px;font-family:'Gotham Light';-inkscape-font-specification:'Gotham Light, ';font-variant-ligatures:normal;font-variant-caps:normal;font-variant-numeric:normal;font-feature-settings:normal;text-align:start;letter-spacing:0.02362569px;writing-mode:lr-tb;text-anchor:start;stroke-width:0.26458332px"
             id="path5854"
             inkscape:connector-curvature="0" />
          <path
             d="m 83.926408,367.0912 h 0.198791 l 1.959504,2.47068 v -2.47068 h 0.202847 v 2.83986 h -0.158221 l -2.000073,-2.52342 v 2.52342 h -0.202848 z"
             style="font-style:normal;font-variant:normal;font-weight:normal;font-stretch:normal;font-size:4.05694437px;font-family:'Gotham Light';-inkscape-font-specification:'Gotham Light, ';font-variant-ligatures:normal;font-variant-caps:normal;font-variant-numeric:normal;font-feature-settings:normal;text-align:start;letter-spacing:0.02362569px;writing-mode:lr-tb;text-anchor:start;stroke-width:0.26458332px"
             id="path5856"
             inkscape:connector-curvature="0" />
        </g>
        <g
           aria-label="TECHNOLOGY"
           style="font-style:normal;font-variant:normal;font-weight:normal;font-stretch:normal;font-size:10.58333397px;line-height:0.33072919px;font-family:'Gotham Medium';-inkscape-font-specification:'Gotham Medium, ';letter-spacing:0.33866665px;word-spacing:0px;clip-rule:evenodd;fill:#000000;fill-opacity:1;fill-rule:evenodd;stroke:none;stroke-width:0.26458332px;stroke-linecap:butt;stroke-linejoin:miter;stroke-opacity:1;image-rendering:optimizeQuality;shape-rendering:geometricPrecision;text-rendering:geometricPrecision"
           id="g5880">
          <path
             d="m 37.317967,372.21214 h -0.989895 v -0.19473 h 2.19075 v 0.19473 h -0.989894 v 2.64513 h -0.210961 z"
             style="font-style:normal;font-variant:normal;font-weight:normal;font-stretch:normal;font-size:4.05694437px;font-family:'Gotham Light';-inkscape-font-specification:'Gotham Light, ';font-variant-ligatures:normal;font-variant-caps:normal;font-variant-numeric:normal;font-feature-settings:normal;text-align:start;letter-spacing:0.02645833px;writing-mode:lr-tb;text-anchor:start;stroke-width:0.26458332px"
             id="path5860"
             inkscape:connector-curvature="0" />
          <path
             d="m 39.188053,372.01741 h 2.020358 v 0.19473 h -1.809397 v 1.11566 h 1.626834 v 0.19473 h -1.626834 v 1.14001 h 1.829682 v 0.19473 h -2.040643 z"
             style="font-style:normal;font-variant:normal;font-weight:normal;font-stretch:normal;font-size:4.05694437px;font-family:'Gotham Light';-inkscape-font-specification:'Gotham Light, ';font-variant-ligatures:normal;font-variant-caps:normal;font-variant-numeric:normal;font-feature-settings:normal;text-align:start;letter-spacing:0.02645833px;writing-mode:lr-tb;text-anchor:start;stroke-width:0.26458332px"
             id="path5862"
             inkscape:connector-curvature="0" />
          <path
             d="m 43.218398,374.90595 q -0.304271,0 -0.563915,-0.11359 -0.259645,-0.1136 -0.450321,-0.30833 -0.186619,-0.19879 -0.2921,-0.46655 -0.10548,-0.26776 -0.10548,-0.57203 v -0.008 q 0,-0.30022 0.10548,-0.56797 0.109538,-0.26776 0.296157,-0.46655 0.190676,-0.20285 0.450321,-0.31644 0.259644,-0.11766 0.567972,-0.11766 0.190676,0 0.34484,0.0325 0.154164,0.0325 0.283986,0.0933 0.13388,0.0609 0.247474,0.14605 0.117651,0.0811 0.227189,0.18256 l -0.150107,0.15417 q -0.09331,-0.0893 -0.194733,-0.16634 -0.101424,-0.0771 -0.219075,-0.12982 -0.113595,-0.0568 -0.251531,-0.0892 -0.133879,-0.0325 -0.2921,-0.0325 -0.255587,0 -0.474662,0.0974 -0.219075,0.0974 -0.381353,0.27181 -0.158221,0.17039 -0.251531,0.40164 -0.08925,0.23125 -0.08925,0.499 v 0.008 q 0,0.26776 0.09331,0.50306 0.09331,0.23125 0.251531,0.40569 0.162278,0.1704 0.381353,0.27182 0.219075,0.0974 0.474662,0.0974 0.308328,0 0.535517,-0.1136 0.227189,-0.11359 0.442207,-0.32861 l 0.141993,0.13794 q -0.113595,0.10953 -0.235303,0.20284 -0.117651,0.0893 -0.255588,0.15417 -0.133879,0.0649 -0.2921,0.10142 -0.15822,0.0365 -0.34484,0.0365 z"
             style="font-style:normal;font-variant:normal;font-weight:normal;font-stretch:normal;font-size:4.05694437px;font-family:'Gotham Light';-inkscape-font-specification:'Gotham Light, ';font-variant-ligatures:normal;font-variant-caps:normal;font-variant-numeric:normal;font-feature-settings:normal;text-align:start;letter-spacing:0.02645833px;writing-mode:lr-tb;text-anchor:start;stroke-width:0.26458332px"
             id="path5864"
             inkscape:connector-curvature="0" />
          <path
             d="m 44.953971,372.01741 h 0.210962 v 1.31445 h 1.817511 v -1.31445 h 0.210961 v 2.83986 h -0.210961 v -1.33068 h -1.817511 v 1.33068 h -0.210962 z"
             style="font-style:normal;font-variant:normal;font-weight:normal;font-stretch:normal;font-size:4.05694437px;font-family:'Gotham Light';-inkscape-font-specification:'Gotham Light, ';font-variant-ligatures:normal;font-variant-caps:normal;font-variant-numeric:normal;font-feature-settings:normal;text-align:start;letter-spacing:0.02645833px;writing-mode:lr-tb;text-anchor:start;stroke-width:0.26458332px"
             id="path5866"
             inkscape:connector-curvature="0" />
          <path
             d="m 48.062756,372.01741 h 0.19879 l 1.959504,2.47068 v -2.47068 h 0.202848 v 2.83986 h -0.158221 l -2.000074,-2.52342 v 2.52342 h -0.202847 z"
             style="font-style:normal;font-variant:normal;font-weight:normal;font-stretch:normal;font-size:4.05694437px;font-family:'Gotham Light';-inkscape-font-specification:'Gotham Light, ';font-variant-ligatures:normal;font-variant-caps:normal;font-variant-numeric:normal;font-feature-settings:normal;text-align:start;letter-spacing:0.02645833px;writing-mode:lr-tb;text-anchor:start;stroke-width:0.26458332px"
             id="path5868"
             inkscape:connector-curvature="0" />
          <path
             d="m 52.596733,374.71528 q 0.263702,0 0.482777,-0.0974 0.223132,-0.10142 0.381352,-0.27182 0.162278,-0.17444 0.251531,-0.40569 0.08925,-0.23125 0.08925,-0.49495 v -0.008 q 0,-0.2637 -0.09331,-0.49495 -0.08925,-0.2353 -0.251531,-0.40569 -0.15822,-0.17445 -0.381352,-0.27588 -0.223132,-0.10142 -0.486834,-0.10142 -0.263701,0 -0.486833,0.10142 -0.219075,0.0974 -0.381353,0.27182 -0.158221,0.17039 -0.247473,0.40164 -0.08925,0.23124 -0.08925,0.49494 v 0.008 q 0,0.2637 0.08925,0.499 0.09331,0.23125 0.25153,0.4057 0.162278,0.17039 0.38541,0.27181 0.223132,0.10143 0.486833,0.10143 z m -0.0081,0.19067 q -0.324555,0 -0.588257,-0.11765 -0.259644,-0.12171 -0.446263,-0.3205 -0.18662,-0.20284 -0.288043,-0.46655 -0.101424,-0.2637 -0.101424,-0.5558 v -0.008 q 0,-0.2921 0.101424,-0.5558 0.10548,-0.26776 0.2921,-0.47061 0.186619,-0.20285 0.45032,-0.3205 0.263702,-0.12171 0.588257,-0.12171 0.320499,0 0.5842,0.12171 0.263702,0.11765 0.450321,0.3205 0.18662,0.19879 0.288043,0.46249 0.101424,0.2637 0.101424,0.5558 0.0041,0.004 0,0.008 0,0.2921 -0.105481,0.55986 -0.101423,0.2637 -0.288043,0.46655 -0.186619,0.20284 -0.454378,0.32455 -0.263701,0.11765 -0.5842,0.11765 z"
             style="font-style:normal;font-variant:normal;font-weight:normal;font-stretch:normal;font-size:4.05694437px;font-family:'Gotham Light';-inkscape-font-specification:'Gotham Light, ';font-variant-ligatures:normal;font-variant-caps:normal;font-variant-numeric:normal;font-feature-settings:normal;text-align:start;letter-spacing:0.02645833px;writing-mode:lr-tb;text-anchor:start;stroke-width:0.26458332px"
             id="path5870"
             inkscape:connector-curvature="0" />
          <path
             d="m 54.763673,372.01741 h 0.210961 v 2.64513 h 1.667405 v 0.19473 h -1.878366 z"
             style="font-style:normal;font-variant:normal;font-weight:normal;font-stretch:normal;font-size:4.05694437px;font-family:'Gotham Light';-inkscape-font-specification:'Gotham Light, ';font-variant-ligatures:normal;font-variant-caps:normal;font-variant-numeric:normal;font-feature-settings:normal;text-align:start;letter-spacing:0.02645833px;writing-mode:lr-tb;text-anchor:start;stroke-width:0.26458332px"
             id="path5872"
             inkscape:connector-curvature="0" />
          <path
             d="m 58.608286,374.71528 q 0.263701,0 0.482776,-0.0974 0.223132,-0.10142 0.381353,-0.27182 0.162278,-0.17444 0.251531,-0.40569 0.08925,-0.23125 0.08925,-0.49495 v -0.008 q 0,-0.2637 -0.09331,-0.49495 -0.08925,-0.2353 -0.251531,-0.40569 -0.158221,-0.17445 -0.381352,-0.27588 -0.223132,-0.10142 -0.486834,-0.10142 -0.263701,0 -0.486833,0.10142 -0.219075,0.0974 -0.381353,0.27182 -0.158221,0.17039 -0.247474,0.40164 -0.08925,0.23124 -0.08925,0.49494 v 0.008 q 0,0.2637 0.08925,0.499 0.09331,0.23125 0.251531,0.4057 0.162278,0.17039 0.38541,0.27181 0.223132,0.10143 0.486833,0.10143 z m -0.0081,0.19067 q -0.324555,0 -0.588257,-0.11765 -0.259644,-0.12171 -0.446264,-0.3205 -0.186619,-0.20284 -0.288043,-0.46655 -0.101423,-0.2637 -0.101423,-0.5558 v -0.008 q 0,-0.2921 0.101423,-0.5558 0.105481,-0.26776 0.2921,-0.47061 0.18662,-0.20285 0.450321,-0.3205 0.263702,-0.12171 0.588257,-0.12171 0.320499,0 0.5842,0.12171 0.263701,0.11765 0.450321,0.3205 0.186619,0.19879 0.288043,0.46249 0.101424,0.2637 0.101424,0.5558 0.0041,0.004 0,0.008 0,0.2921 -0.105481,0.55986 -0.101424,0.2637 -0.288043,0.46655 -0.186619,0.20284 -0.454378,0.32455 -0.263701,0.11765 -0.5842,0.11765 z"
             style="font-style:normal;font-variant:normal;font-weight:normal;font-stretch:normal;font-size:4.05694437px;font-family:'Gotham Light';-inkscape-font-specification:'Gotham Light, ';font-variant-ligatures:normal;font-variant-caps:normal;font-variant-numeric:normal;font-feature-settings:normal;text-align:start;letter-spacing:0.02645833px;writing-mode:lr-tb;text-anchor:start;stroke-width:0.26458332px"
             id="path5874"
             inkscape:connector-curvature="0" />
          <path
             d="m 62.077507,374.90595 q -0.336726,0 -0.604485,-0.11359 -0.263701,-0.11765 -0.446263,-0.31644 -0.182563,-0.19879 -0.27993,-0.4625 -0.09737,-0.26775 -0.09737,-0.56797 v -0.008 q 0,-0.28804 0.09737,-0.55175 0.101424,-0.26775 0.283987,-0.4706 0.186619,-0.20285 0.446263,-0.32456 0.259645,-0.12171 0.576087,-0.12171 0.174448,0 0.316441,0.0243 0.14605,0.0243 0.267758,0.073 0.125766,0.0487 0.235303,0.11765 0.113595,0.069 0.219075,0.15822 l -0.137936,0.15822 q -0.166335,-0.14605 -0.381353,-0.24341 -0.210961,-0.0974 -0.531459,-0.0974 -0.259645,0 -0.474663,0.10142 -0.215018,0.10143 -0.373239,0.27588 -0.154164,0.17445 -0.239359,0.40569 -0.0852,0.23125 -0.0852,0.48683 v 0.008 q 0,0.27587 0.08114,0.51117 0.08519,0.23531 0.243416,0.4057 0.158221,0.17039 0.381353,0.26776 0.227189,0.0974 0.511175,0.0974 0.133879,0 0.263701,-0.0243 0.129823,-0.0284 0.243417,-0.073 0.117651,-0.0446 0.219075,-0.10143 0.101424,-0.0608 0.178506,-0.12576 v -0.81545 h -0.949325 v -0.19473 h 1.152172 v 1.09537 q -0.194733,0.1704 -0.482777,0.30022 -0.283986,0.12576 -0.632883,0.12576 z"
             style="font-style:normal;font-variant:normal;font-weight:normal;font-stretch:normal;font-size:4.05694437px;font-family:'Gotham Light';-inkscape-font-specification:'Gotham Light, ';font-variant-ligatures:normal;font-variant-caps:normal;font-variant-numeric:normal;font-feature-settings:normal;text-align:start;letter-spacing:0.02645833px;writing-mode:lr-tb;text-anchor:start;stroke-width:0.26458332px"
             id="path5876"
             inkscape:connector-curvature="0" />
          <path
             d="m 64.90408,373.7335 -1.217083,-1.71609 h 0.263701 l 1.06292,1.52541 1.066976,-1.52541 h 0.251531 l -1.217084,1.71203 v 1.12783 H 64.90408 Z"
             style="font-style:normal;font-variant:normal;font-weight:normal;font-stretch:normal;font-size:4.05694437px;font-family:'Gotham Light';-inkscape-font-specification:'Gotham Light, ';font-variant-ligatures:normal;font-variant-caps:normal;font-variant-numeric:normal;font-feature-settings:normal;text-align:start;letter-spacing:0.02645833px;writing-mode:lr-tb;text-anchor:start;stroke-width:0.26458332px"
             id="path5878"
             inkscape:connector-curvature="0" />
        </g>
      </g>
      <path
         style="color:#000000;font-style:normal;font-variant:normal;font-weight:normal;font-stretch:normal;font-size:medium;line-height:normal;font-family:sans-serif;font-variant-ligatures:normal;font-variant-position:normal;font-variant-caps:normal;font-variant-numeric:normal;font-variant-alternates:normal;font-feature-settings:normal;text-indent:0;text-align:start;text-decoration:none;text-decoration-line:none;text-decoration-style:solid;text-decoration-color:#000000;letter-spacing:normal;word-spacing:normal;text-transform:none;writing-mode:lr-tb;direction:ltr;text-orientation:mixed;dominant-baseline:auto;baseline-shift:baseline;text-anchor:start;white-space:normal;shape-padding:0;clip-rule:nonzero;display:inline;overflow:visible;visibility:visible;opacity:1;isolation:auto;mix-blend-mode:normal;color-interpolation:sRGB;color-interpolation-filters:linearRGB;solid-color:#000000;solid-opacity:1;vector-effect:none;fill:#000000;fill-opacity:1;fill-rule:evenodd;stroke:none;stroke-width:0.55220658px;stroke-linecap:butt;stroke-linejoin:miter;stroke-miterlimit:4;stroke-dasharray:none;stroke-dashoffset:0;stroke-opacity:1;color-rendering:auto;image-rendering:auto;shape-rendering:auto;text-rendering:auto;enable-background:accumulate"
         d="m 173.78859,-32.720123 h -65.08214 v 0.326171 h 65.08214 z"
         id="path5884"
         inkscape:connector-curvature="0" />
      <g
         id="g5892"
         transform="matrix(1.260924,0,0,1.2647932,62.082409,61.097515)">
        <g
           transform="translate(12.165328,-292.33064)"
           style="display:inline"
           id="g5888">
          <path
             style="clip-rule:evenodd;fill:#ca2334;fill-rule:nonzero;stroke-width:0.02834687;image-rendering:optimizeQuality;shape-rendering:geometricPrecision;text-rendering:geometricPrecision"
             d="m 218.0918,289.18945 c -0.27412,-0.0223 -0.55638,-0.0179 -0.83985,0.0176 -2.29609,0.25512 -3.91041,2.32499 -3.62695,4.62109 0.0686,0.6102 0.27629,1.16616 0.57617,1.65821 l -14.24609,18.07617 c -0.3602,-0.22101 -0.78721,-0.33675 -1.24024,-0.28906 -1.07718,0.14173 -1.8722,1.10643 -1.73046,2.18359 0.11338,1.10555 1.10641,1.87025 2.18359,1.72852 0.80635,-0.0849 1.45279,-0.66166 1.66797,-1.39844 l 23.94336,3.94922 c 0.35267,2.61973 2.735,4.47644 5.37109,4.16797 2.69296,-0.31181 4.59306,-2.74946 4.28125,-5.41407 -0.16221,-1.38617 -0.90759,-2.55583 -1.95312,-3.32421 L 237.5,300.61719 c 0.20582,0.0433 0.41906,0.0621 0.63867,0.0332 0.59079,-0.0622 1.08096,-0.3936 1.39063,-0.85351 l 9.625,4.93554 c -0.12185,0.47733 -0.17066,0.98042 -0.10547,1.4961 0.2339,2.28703 2.28718,3.92478 4.57422,3.63867 2.28703,-0.25992 3.92336,-2.34054 3.68945,-4.60157 -0.25989,-2.28702 -2.31257,-3.8987 -4.59961,-3.63867 -0.92664,0.10531 -1.74131,0.51958 -2.375,1.11328 l -10.51367,-3.63281 c 0.0451,-0.20575 0.0661,-0.41914 0.043,-0.63867 -0.14174,-1.07717 -1.10642,-1.84385 -2.1836,-1.73047 -1.07718,0.11339 -1.87024,1.10643 -1.72851,2.1836 0.0649,0.61642 0.42239,1.13282 0.91406,1.4414 l -6.48633,13.92969 c -0.44356,-0.0737 -0.89741,-0.10943 -1.36523,-0.0547 -0.0885,0.0104 -0.17488,0.028 -0.26172,0.043 l -8.91992,-17.37891 c 1.38216,-0.81592 2.22002,-2.38431 2.00976,-4.0664 -0.22323,-1.98429 -1.83512,-3.49069 -3.7539,-3.64649 z m -1.94532,7.95313 c 0.63594,0.26607 1.33889,0.39674 2.07032,0.31445 0.30349,-0.0375 0.59223,-0.11082 0.86914,-0.20703 L 226.5,315.32031 c -0.6197,0.51166 -1.09151,1.17486 -1.39648,1.91992 l -24.20313,-2.07812 c -0.003,-0.0529 0.003,-0.10475 -0.004,-0.1582 -0.0519,-0.39449 -0.21552,-0.7463 -0.45312,-1.0293 z"
             transform="matrix(0.26458333,0,0,0.26458333,-12.165328,120.33064)"
             id="path5886"
             inkscape:connector-curvature="0" />
        </g>
        <path
           id="path5890"
           transform="matrix(0.00999727,0,0,0.00999727,31.842639,-149.58562)"
           style="clip-rule:evenodd;display:inline;opacity:1;fill:#000000;fill-rule:nonzero;image-rendering:optimizeQuality;shape-rendering:geometricPrecision;text-rendering:geometricPrecision"
           d="m 2949,6420 v 870 h -112 v -870 z m -427.2419,581.1494 94.4174,49.6091 q -46.4086,91.2168 -107.2197,147.2271 -60.8112,56.0101 -136.8251,85.6156 -76.014,28.8053 -172.0316,28.8053 -212.8391,0 -332.861,-139.2255 -120.0221,-140.0257 -120.0221,-316.058 0,-165.6304 101.6186,-295.2542 128.8237,-164.8303 344.8634,-164.8303 222.4408,0 355.2652,168.831 94.4172,119.2218 96.0176,297.6546 h -782.5437 q 3.2009,152.0279 96.8179,249.6458 93.6171,96.8178 231.2424,96.8178 66.4121,0 128.8236,-23.2042 63.2116,-23.2043 107.2196,-61.6113 44.0082,-38.4071 95.2175,-124.0228 z m 0,-234.4431 q -22.4041,-89.6164 -65.612,-143.2262 -42.4077,-53.6099 -112.8207,-86.4159 -70.4129,-32.806 -148.0272,-32.806 -128.0234,0 -220.0404,82.4151 -67.2123,60.011 -101.6186,180.033 z m -1835.13235,-653.72 h 118.42183 v 493.6907 h 598.50982 v -493.6907 h 118.4217 V 7290.0024 H 1403.5574 V 6721.8981 H 805.04758 v 568.1043 H 686.62575 Z m 4573.37545,254.8264 v 920.999 h -169.9998 v -920.999 H 4821.0008 V 6202.812 h 712.9999 v 165.0007 z m -1240.9999,744.0001 v -358.0001 h 187.5 v 33.0001 c 0,61.9993 -1.0003,124.9991 0,188.0002 0,40.9985 1.0002,81.9983 0,122.9993 v 84.9999 c 0,0 -19.7622,18.3614 -40.5003,35.0001 -30,20.9995 -59.9996,40.9998 -94.0001,57.0001 -87.9997,40.0004 -181.9998,57.9996 -277.9998,57.9996 -181.9991,0 -342.9995,-57.0002 -463.0004,-195.9999 -97.9999,-113.9991 -142.9992,-249.0001 -142.9992,-398.9999 0,-160.9997 57.0007,-301 173.0001,-413.9997 118.9998,-116.0002 266.0001,-168 430.9995,-168 98,0 194.0001,18.9996 281.9997,62.0006 46.0002,21.9988 88.0003,49.9998 126.0002,83.9993 l 21.0002,16.9997 -89.0003,155.0002 -30.9997,-28.9992 c -31.9999,-32.0008 -67.9996,-57.0014 -108.9996,-77.0004 -62.0008,-30.0009 -129.0003,-42.9996 -198.0005,-42.9996 -77.9992,0 -150.9996,18.9984 -217.9997,56.9989 -65.0003,36.0007 -117.0001,86.0005 -155.0006,151.0003 -37.9991,66.0003 -54.9987,138.0003 -54.9987,214.0001 0,116.9995 38.9995,216.9993 122.9999,299.9994 85.9991,84.0006 191.9994,120.0012 311.9993,120.0012 76.9997,0 150.9998,-17.0009 218,-55.0002 z m 467.9999,-909.0008 h 167.9999 v 1085.9997 h -167.9999 z"
           inkscape:connector-curvature="0" />
      </g>
    </g>
  </g>
</svg>
