<svg xmlns="http://www.w3.org/2000/svg" viewBox="0 0 174.05 140.15"><defs><style>.cls-1{fill:#52a2cb;}.cls-2{fill:#ecb248;}.cls-3{fill:#898a8a;}.cls-4{fill:#231f20;}</style></defs><title>Asset 2</title><g id="Layer_2" data-name="Layer 2"><g id="Layer_1-2" data-name="Layer 1"><path class="cls-1" d="M96.63,35.18c1.13-4.56,1.76-9,1.4-12.41-.91-8.55-7.37-10.51-11.09-10.5-3.88,0-9.43,1.43-11,10.47-1.38,7.83,2.6,18.82,8.49,29A25.15,25.15,0,0,1,82,55.7a41.51,41.51,0,0,1-4.46,5.44C70,48,64,36.49,64,28c.15-21.89,12.43-28,22.92-28s23,7,23,27.79a48.91,48.91,0,0,1-1.36,8.53c-.81-.06-3-.44-5.33-.66C99.63,35.32,96.63,35.18,96.63,35.18Z"/><path class="cls-2" d="M67.7,50.93c-4.51,1.3-8.71,3-11.45,5-7,5.06-5.41,11.64-3.55,14.86s6,7.44,14.59,4.3c7.46-2.71,15-11.65,20.89-21.86a25.47,25.47,0,0,1,4.59.09,41.8,41.8,0,0,1,6.94,1.15c-7.57,13.17-14.54,24.1-21.94,28.31-19,10.81-30.5,3.26-35.69-5.86S36.63,53.47,54.63,43.07A49.48,49.48,0,0,1,62.7,40c.35.73,1.11,2.8,2.1,4.95C66.32,48.26,67.7,50.93,67.7,50.93Z"/><path class="cls-3" d="M96.46,67.7c3.38,3.27,6.94,6,10,7.42,7.86,3.49,12.79-1.13,14.65-4.35s3.47-8.88-3.57-14.79c-6.08-5.1-17.59-7.15-29.38-7.16a24.68,24.68,0,0,1-2.22-4,41.35,41.35,0,0,1-2.47-6.59c15.19,0,28.14.54,35.49,4.84,18.88,11.09,18.07,24.79,12.77,33.84S114.2,93.35,96.19,83a48.42,48.42,0,0,1-6.7-5.45c.45-.66,1.86-2.36,3.23-4.29C94.83,70.23,96.46,67.7,96.46,67.7Z"/><path class="cls-4" d="M23.25,126.78H15.88l-9.51-9v9H.91V102.4H6.37v9l9.51-9h6.65L9.74,114.33Z"/><path class="cls-4" d="M35.25,102.47h5.38l10.88,24.31h-5l-2.56-5.39H31.63l-2.56,5.39H24.2Zm-1.33,14H42L38,107h0Z"/><path class="cls-4" d="M67.7,117.78h.21l6.31,9h-6L62,118.05H59.38v8.77H54V102.44H65a10.29,10.29,0,0,1,3.9.66,7.48,7.48,0,0,1,2.65,1.75A6.73,6.73,0,0,1,73,107.36a9.1,9.1,0,0,1,.12,5.32,7.46,7.46,0,0,1-1,2.23,6.74,6.74,0,0,1-1.79,1.78A7.74,7.74,0,0,1,67.7,117.78ZM63.56,106.6H59.38v7.33h4.18a11.56,11.56,0,0,0,1.81-.14,3.64,3.64,0,0,0,1.49-.55,2.81,2.81,0,0,0,1-1.12,4,4,0,0,0,.38-1.88,4.15,4.15,0,0,0-.38-1.91,2.85,2.85,0,0,0-1-1.11,3.76,3.76,0,0,0-1.49-.51A14.79,14.79,0,0,0,63.56,106.6Z"/><path class="cls-4" d="M84.31,106.93l-7.74,0v-4.5H97.33V107l-7.67,0v19.85H84.31Z"/><path class="cls-4" d="M123.86,114.51a12,12,0,0,1-1,4.9,12.73,12.73,0,0,1-6.72,6.69,12.62,12.62,0,0,1-9.8,0,12.66,12.66,0,0,1-6.68-6.69,12.19,12.19,0,0,1-1-4.9,12.38,12.38,0,0,1,1-4.94,12.57,12.57,0,0,1,6.68-6.69,12.62,12.62,0,0,1,9.8,0,12.64,12.64,0,0,1,6.72,6.69A12.23,12.23,0,0,1,123.86,114.51ZM111.24,107a7,7,0,0,0-2.88.6,7.59,7.59,0,0,0-2.35,1.62,8,8,0,0,0-1.6,2.37,7.24,7.24,0,0,0,0,5.77,7.49,7.49,0,0,0,1.6,2.34,7.39,7.39,0,0,0,2.35,1.61,7,7,0,0,0,2.88.59,6.89,6.89,0,0,0,2.87-.59,7.61,7.61,0,0,0,3.92-4,7.59,7.59,0,0,0,0-5.77,8.12,8.12,0,0,0-1.58-2.37,7.79,7.79,0,0,0-2.34-1.62A6.9,6.9,0,0,0,111.24,107Z"/><path class="cls-4" d="M125.39,122.55l13.06-15.62h-12v-4.49h19.17v4.22l-13.06,15.62h13.4v4.5H125.39Z"/><path class="cls-4" d="M157.78,102.47h5.39l10.88,24.31h-5l-2.56-5.39h-12.3l-2.56,5.39h-4.88Zm-1.33,14h8.08L160.58,107h0Z"/><path class="cls-4" d="M6.22,137A3,3,0,0,1,6,138.19a3.34,3.34,0,0,1-.67,1,2.91,2.91,0,0,1-1,.66,2.91,2.91,0,0,1-1.21.25,2.91,2.91,0,0,1-1.21-.25,3,3,0,0,1-1-.66,3.16,3.16,0,0,1-.67-1A3.12,3.12,0,0,1,0,137a3.07,3.07,0,0,1,.24-1.21,3.25,3.25,0,0,1,.67-1,3.52,3.52,0,0,1,1-.66,3.07,3.07,0,0,1,1.21-.24,3.07,3.07,0,0,1,1.21.24,3.43,3.43,0,0,1,1,.66,3.44,3.44,0,0,1,.67,1A2.91,2.91,0,0,1,6.22,137ZM3.1,135.13a1.87,1.87,0,0,0-.71.14,2,2,0,0,0-.58.41,2.11,2.11,0,0,0-.39.58,1.71,1.71,0,0,0-.15.71,1.67,1.67,0,0,0,.15.71,2.16,2.16,0,0,0,.39.59,1.91,1.91,0,0,0,.58.39,1.71,1.71,0,0,0,.71.15,1.67,1.67,0,0,0,.71-.15,1.91,1.91,0,0,0,.58-.39,2.16,2.16,0,0,0,.39-.59,1.83,1.83,0,0,0,.14-.71,1.87,1.87,0,0,0-.14-.71,2.11,2.11,0,0,0-.39-.58,2,2,0,0,0-.58-.41A1.83,1.83,0,0,0,3.1,135.13Z"/><path class="cls-4" d="M7,134H9.69a2.46,2.46,0,0,1,1,.17,1.89,1.89,0,0,1,.65.43,1.83,1.83,0,0,1,.36.62,2.5,2.5,0,0,1,.11.71,2.46,2.46,0,0,1-.11.72,1.89,1.89,0,0,1-.36.61,1.76,1.76,0,0,1-.65.43,2.46,2.46,0,0,1-1,.17H8.3V140H7Zm1.32,2.83h1a2.12,2.12,0,0,0,.44,0,.9.9,0,0,0,.37-.12.78.78,0,0,0,.26-.28,1.22,1.22,0,0,0,0-.92.88.88,0,0,0-.26-.28,1.08,1.08,0,0,0-.37-.13,3.15,3.15,0,0,0-.44,0h-1Z"/><path class="cls-4" d="M13.73,138.88h3.39V140H12.44v-6h4.39v1.12h-3.1v1.34h2.74v1.17H13.73Z"/><path class="cls-4" d="M19,135.61V140H18v-6h1.51l2.69,3.75V134h1.12v6H22.15Z"/><path class="cls-4" d="M27.82,138a1.13,1.13,0,0,0,.11.51.88.88,0,0,0,.29.34,1.17,1.17,0,0,0,.42.2,2.1,2.1,0,0,0,.51.06l.38,0a1,1,0,0,0,.37-.12.67.67,0,0,0,.3-.22.62.62,0,0,0,.12-.38.5.5,0,0,0-.16-.39,1.11,1.11,0,0,0-.41-.26,3.2,3.2,0,0,0-.57-.18l-.64-.16a6.37,6.37,0,0,1-.66-.21,2.08,2.08,0,0,1-.57-.31,1.4,1.4,0,0,1-.41-.49,1.34,1.34,0,0,1-.16-.7,1.56,1.56,0,0,1,.2-.8,1.67,1.67,0,0,1,.52-.57,2.17,2.17,0,0,1,.72-.34,3.21,3.21,0,0,1,.81-.1,3.76,3.76,0,0,1,.9.1,2.15,2.15,0,0,1,.77.34,1.56,1.56,0,0,1,.54.6,1.86,1.86,0,0,1,.2.89H30.12a1,1,0,0,0-.12-.45.76.76,0,0,0-.25-.28,1.35,1.35,0,0,0-.37-.14,2.22,2.22,0,0,0-.45,0,1.73,1.73,0,0,0-.32,0,.93.93,0,0,0-.29.12.73.73,0,0,0-.22.21.66.66,0,0,0-.08.32.52.52,0,0,0,.07.29.75.75,0,0,0,.26.2l.55.18.91.24.29.07.38.12a1.86,1.86,0,0,1,.39.21,2.67,2.67,0,0,1,.36.31,1.62,1.62,0,0,1,.27.44,1.84,1.84,0,0,1,.1.6,2,2,0,0,1-.16.77,1.72,1.72,0,0,1-.48.6,2.22,2.22,0,0,1-.78.41,3.83,3.83,0,0,1-2.05,0,2.47,2.47,0,0,1-.82-.38,2.18,2.18,0,0,1-.57-.67,1.94,1.94,0,0,1-.2-1Z"/><path class="cls-4" d="M38.16,137a3,3,0,0,1-.25,1.22,3.31,3.31,0,0,1-.66,1,3,3,0,0,1-1,.66,2.87,2.87,0,0,1-1.2.25,3.13,3.13,0,0,1-2.2-.91A3.06,3.06,0,0,1,32,137a3.07,3.07,0,0,1,.24-1.21,3.22,3.22,0,0,1,.66-1,3.52,3.52,0,0,1,1-.66,3.12,3.12,0,0,1,1.22-.24,3,3,0,0,1,1.2.24,3.48,3.48,0,0,1,1,.66,3.41,3.41,0,0,1,.66,1A2.91,2.91,0,0,1,38.16,137Zm-3.11-1.84a1.87,1.87,0,0,0-.71.14,1.89,1.89,0,0,0-.59.41,2.11,2.11,0,0,0-.39.58,1.71,1.71,0,0,0-.15.71,1.67,1.67,0,0,0,.15.71,2.16,2.16,0,0,0,.39.59,1.84,1.84,0,0,0,.59.39,1.71,1.71,0,0,0,.71.15,1.63,1.63,0,0,0,.7-.15,1.79,1.79,0,0,0,1-1,1.67,1.67,0,0,0,.14-.71,1.7,1.7,0,0,0-.14-.71,1.74,1.74,0,0,0-.39-.58,1.85,1.85,0,0,0-.58-.41A1.78,1.78,0,0,0,35.05,135.13Z"/><path class="cls-4" d="M44,137.73a2.29,2.29,0,0,1-.69,1.82,3.26,3.26,0,0,1-3.77,0,2.29,2.29,0,0,1-.67-1.82V134h1.32v3.74a2.52,2.52,0,0,0,.05.48.83.83,0,0,0,.18.42.85.85,0,0,0,.37.29,1.43,1.43,0,0,0,.64.12,1.25,1.25,0,0,0,1-.32,1.56,1.56,0,0,0,.27-1V134H44Z"/><path class="cls-4" d="M48.52,137.78h0L50.13,140H48.64l-1.52-2.16h-.65V140H45.15v-6h2.71a2.53,2.53,0,0,1,1,.17,1.8,1.8,0,0,1,.65.43,1.71,1.71,0,0,1,.37.62,2.5,2.5,0,0,1,.11.71,2.35,2.35,0,0,1-.08.6,1.74,1.74,0,0,1-.26.55,1.42,1.42,0,0,1-.44.44A1.82,1.82,0,0,1,48.52,137.78Zm-1-2.76h-1v1.81h1a3.29,3.29,0,0,0,.45,0,1,1,0,0,0,.36-.14.62.62,0,0,0,.25-.28,1,1,0,0,0,.1-.46,1,1,0,0,0-.1-.47.6.6,0,0,0-.25-.27.82.82,0,0,0-.36-.13A3.29,3.29,0,0,0,47.5,135Z"/><path class="cls-4" d="M56.52,138.4a3.37,3.37,0,0,1-.48.66,2.77,2.77,0,0,1-.62.51,3.16,3.16,0,0,1-.75.33,3,3,0,0,1-.85.12,3,3,0,0,1-2.15-.89,3.06,3.06,0,0,1-.65-1,3,3,0,0,1-.25-1.19A2.89,2.89,0,0,1,51,135.8a2.85,2.85,0,0,1,.65-1,3,3,0,0,1,1-.66,2.85,2.85,0,0,1,1.19-.24,3.26,3.26,0,0,1,.83.11,3.43,3.43,0,0,1,.73.32,2.91,2.91,0,0,1,.62.49,3.18,3.18,0,0,1,.46.63l-.31.17-.22.12-.25.12-.34.17a1.59,1.59,0,0,0-.63-.63,1.7,1.7,0,0,0-.89-.24,1.61,1.61,0,0,0-.69.14,2.1,2.1,0,0,0-.57.38,1.67,1.67,0,0,0-.38.58A1.59,1.59,0,0,0,52,137a1.65,1.65,0,0,0,.14.7,1.68,1.68,0,0,0,.38.56,1.61,1.61,0,0,0,.57.39,1.77,1.77,0,0,0,.69.14,1.77,1.77,0,0,0,1.56-.94l.35.18.24.13.23.12Z"/><path class="cls-4" d="M58.46,138.88h3.39V140H57.18v-6h4.38v1.12h-3.1v1.34H61.2v1.17H58.46Z"/><path class="cls-4" d="M71,137c0,.05,0,.15,0,.28s0,.28-.07.43-.07.3-.11.44a1.24,1.24,0,0,1-.14.34,3.48,3.48,0,0,1-.48.66,3.87,3.87,0,0,1-.64.51,3.51,3.51,0,0,1-.77.33,3.34,3.34,0,0,1-.84.12,2.92,2.92,0,0,1-1.21-.26,3,3,0,0,1-1-.66,2.8,2.8,0,0,1-.67-1,3.09,3.09,0,0,1,.67-3.4,3,3,0,0,1,1-.67,3.07,3.07,0,0,1,1.21-.24,2.94,2.94,0,0,1,.84.11,3.43,3.43,0,0,1,.76.33,3,3,0,0,1,.63.5,2.56,2.56,0,0,1,.48.64l-.31.16-.24.13-.25.12-.35.18a1.81,1.81,0,0,0-.65-.64,1.86,1.86,0,0,0-1.62-.1,1.67,1.67,0,0,0-.58.38,2.11,2.11,0,0,0-.39.58,1.87,1.87,0,0,0-.14.71,1.8,1.8,0,0,0,.53,1.29,1.69,1.69,0,0,0,.58.39,1.87,1.87,0,0,0,.71.14,1.81,1.81,0,0,0,.92-.25,2,2,0,0,0,.67-.66c-.16,0-.3,0-.41,0H68V137H71Z"/><path class="cls-4" d="M73,138.88h3.4V140H71.75v-6h4.39v1.12H73v1.34h2.75v1.17H73Z"/><path class="cls-4" d="M83.17,137a2.82,2.82,0,0,1-.26,1.22,3.13,3.13,0,0,1-.66,1,3.09,3.09,0,0,1-3.41.66,2.87,2.87,0,0,1-1-.66,3,3,0,0,1-.67-1A3.12,3.12,0,0,1,77,137a3.11,3.11,0,0,1,.91-2.21,3.38,3.38,0,0,1,1-.66,3.17,3.17,0,0,1,2.42,0,3.43,3.43,0,0,1,1,.66,3.22,3.22,0,0,1,.66,1A2.77,2.77,0,0,1,83.17,137Zm-3.12-1.84a1.87,1.87,0,0,0-.71.14,2,2,0,0,0-.58.41,1.91,1.91,0,0,0-.39.58,1.71,1.71,0,0,0-.15.71,1.67,1.67,0,0,0,.15.71,2,2,0,0,0,.39.59,1.91,1.91,0,0,0,.58.39,1.76,1.76,0,0,0,1.42,0,1.75,1.75,0,0,0,.57-.39,2,2,0,0,0,.4-.59,1.83,1.83,0,0,0,.14-.71,1.87,1.87,0,0,0-.14-.71,1.94,1.94,0,0,0-.4-.58,1.81,1.81,0,0,0-.57-.41A1.87,1.87,0,0,0,80.05,135.13Z"/><path class="cls-4" d="M84.83,138a1.13,1.13,0,0,0,.11.51,1,1,0,0,0,.29.34,1.25,1.25,0,0,0,.42.2,2.1,2.1,0,0,0,.51.06l.38,0a1.05,1.05,0,0,0,.38-.12.7.7,0,0,0,.29-.22.56.56,0,0,0,.12-.38.53.53,0,0,0-.15-.39,1.2,1.2,0,0,0-.41-.26,3.83,3.83,0,0,0-.57-.18l-.65-.16a6.37,6.37,0,0,1-.66-.21,2.24,2.24,0,0,1-.57-.31,1.51,1.51,0,0,1-.41-.49,1.34,1.34,0,0,1-.16-.7,1.56,1.56,0,0,1,.2-.8,1.78,1.78,0,0,1,.52-.57,2.17,2.17,0,0,1,.72-.34,3.21,3.21,0,0,1,.81-.1,3.85,3.85,0,0,1,.91.1,2.24,2.24,0,0,1,.77.34,1.62,1.62,0,0,1,.53.6,1.86,1.86,0,0,1,.2.89H87.12a1,1,0,0,0-.1-.45.78.78,0,0,0-.26-.28,1.35,1.35,0,0,0-.37-.14,2.12,2.12,0,0,0-.44,0,1.84,1.84,0,0,0-.33,0,1,1,0,0,0-.29.12.84.84,0,0,0-.21.21.57.57,0,0,0-.09.32.62.62,0,0,0,.07.29.86.86,0,0,0,.26.2l.56.18.91.24.28.07.38.12a1.86,1.86,0,0,1,.39.21,2.76,2.76,0,0,1,.37.31,1.89,1.89,0,0,1,.26.44,1.9,1.9,0,0,1-.06,1.37,1.62,1.62,0,0,1-.48.6,2.06,2.06,0,0,1-.78.41,3.52,3.52,0,0,1-1.08.15,3.42,3.42,0,0,1-1-.13,2.38,2.38,0,0,1-.82-.38,1.94,1.94,0,0,1-.57-.67,2.06,2.06,0,0,1-.21-1Z"/><path class="cls-4" d="M89.39,134H92.1a2.44,2.44,0,0,1,1,.17,1.72,1.72,0,0,1,.65.43,1.83,1.83,0,0,1,.36.62,2.52,2.52,0,0,1,.12.71,2.47,2.47,0,0,1-.12.72,1.89,1.89,0,0,1-.36.61,1.61,1.61,0,0,1-.65.43,2.44,2.44,0,0,1-1,.17H90.7V140H89.39Zm1.31,2.83h1a2.12,2.12,0,0,0,.44,0,.85.85,0,0,0,.37-.12.71.71,0,0,0,.26-.28,1.22,1.22,0,0,0,0-.92.78.78,0,0,0-.26-.28,1,1,0,0,0-.37-.13,3.15,3.15,0,0,0-.44,0h-1Z"/><path class="cls-4" d="M97.16,134h1.33l2.68,6H99.93l-.63-1.33h-3L95.63,140H94.42Zm-.34,3.45h2l-1-2.32h0Z"/><path class="cls-4" d="M103.31,135.1H101.4V134h5.13v1.11h-1.9V140h-1.32Z"/><path class="cls-4" d="M107.29,134h1.32v6h-1.32Z"/><path class="cls-4" d="M111.86,134h1.33l2.68,6h-1.23l-.63-1.33h-3l-.63,1.33h-1.21Zm-.33,3.45h2l-1-2.32h0Z"/><path class="cls-4" d="M116.37,140v-6h1.3v4.88h3.08V140Z"/><path class="cls-4" d="M125.16,138a1.13,1.13,0,0,0,.1.51.9.9,0,0,0,.3.34,1.09,1.09,0,0,0,.42.2,2.1,2.1,0,0,0,.51.06l.38,0a1,1,0,0,0,.37-.12.73.73,0,0,0,.3-.22.62.62,0,0,0,.12-.38.53.53,0,0,0-.15-.39,1.25,1.25,0,0,0-.42-.26,3.83,3.83,0,0,0-.57-.18l-.64-.16a6.56,6.56,0,0,1-.67-.21,2.24,2.24,0,0,1-.57-.31,1.65,1.65,0,0,1-.41-.49,1.58,1.58,0,0,1-.15-.7,1.46,1.46,0,0,1,.2-.8,1.87,1.87,0,0,1,.51-.57,2.33,2.33,0,0,1,.73-.34,3.21,3.21,0,0,1,.81-.1,3.82,3.82,0,0,1,.9.1,2.15,2.15,0,0,1,.77.34,1.54,1.54,0,0,1,.53.6,1.75,1.75,0,0,1,.2.89h-1.27a1.34,1.34,0,0,0-.12-.45.78.78,0,0,0-.26-.28,1.29,1.29,0,0,0-.36-.14,2.15,2.15,0,0,0-.45,0,1.66,1.66,0,0,0-.32,0,.84.84,0,0,0-.29.12.6.6,0,0,0-.21.21.57.57,0,0,0-.09.32.62.62,0,0,0,.06.29.94.94,0,0,0,.27.2l.55.18.91.24.29.07.37.12a1.71,1.71,0,0,1,.4.21,3.47,3.47,0,0,1,.36.31,1.39,1.39,0,0,1,.26.44,1.6,1.6,0,0,1,.11.6,1.84,1.84,0,0,1-.17.77,1.59,1.59,0,0,1-.47.6,2.22,2.22,0,0,1-.78.41,3.59,3.59,0,0,1-1.09.15,3.42,3.42,0,0,1-1-.13,2.47,2.47,0,0,1-.82-.38,2.18,2.18,0,0,1-.57-.67,1.94,1.94,0,0,1-.2-1Z"/><path class="cls-4" d="M135.5,137a3.13,3.13,0,0,1-.25,1.22,3.34,3.34,0,0,1-.67,1,2.91,2.91,0,0,1-1,.66,2.87,2.87,0,0,1-1.2.25,2.93,2.93,0,0,1-1.22-.25,3,3,0,0,1-1-.66,3.13,3.13,0,0,1-.66-1,3,3,0,0,1-.25-1.22,2.91,2.91,0,0,1,.25-1.21,3.22,3.22,0,0,1,.66-1,3.52,3.52,0,0,1,1-.66,3.09,3.09,0,0,1,1.22-.24,3,3,0,0,1,1.2.24,3.07,3.07,0,0,1,1.66,1.66A3.08,3.08,0,0,1,135.5,137Zm-3.11-1.84a1.92,1.92,0,0,0-.72.14,2,2,0,0,0-.58.41,2.11,2.11,0,0,0-.39.58,1.71,1.71,0,0,0-.15.71,1.67,1.67,0,0,0,.15.71,2.16,2.16,0,0,0,.39.59,1.91,1.91,0,0,0,.58.39,1.75,1.75,0,0,0,.72.15,1.66,1.66,0,0,0,.7-.15,1.91,1.91,0,0,0,.58-.39,1.79,1.79,0,0,0,.39-.59,1.67,1.67,0,0,0,.14-.71,1.7,1.7,0,0,0-.14-.71,1.74,1.74,0,0,0-.39-.58,2,2,0,0,0-.58-.41A1.82,1.82,0,0,0,132.39,135.13Z"/><path class="cls-4" d="M136.14,140v-6h1.29v4.88h3.08V140Z"/><path class="cls-4" d="M146.57,137.73a2.28,2.28,0,0,1-.68,1.82,3.28,3.28,0,0,1-3.78,0,2.35,2.35,0,0,1-.67-1.82V134h1.33v3.74a2.52,2.52,0,0,0,0,.48,1.05,1.05,0,0,0,.18.42,1,1,0,0,0,.37.29,1.48,1.48,0,0,0,.65.12,1.23,1.23,0,0,0,1-.32,1.5,1.5,0,0,0,.27-1V134h1.32v3.74Z"/><path class="cls-4" d="M149.21,135.1h-1.9V134h5.12v1.11h-1.89V140h-1.33Z"/><path class="cls-4" d="M153.18,134h1.33v6h-1.33Z"/><path class="cls-4" d="M161.4,137a3,3,0,0,1-.25,1.22,3.15,3.15,0,0,1-1.65,1.64,3,3,0,0,1-1.21.25,3.18,3.18,0,0,1-2.2-.91,3.13,3.13,0,0,1-.66-1,3,3,0,0,1-.24-1.22,2.91,2.91,0,0,1,.24-1.21,3.22,3.22,0,0,1,.66-1,3.43,3.43,0,0,1,1-.66,3.07,3.07,0,0,1,1.21-.24,3.11,3.11,0,0,1,1.21.24,3.52,3.52,0,0,1,1,.66,3.08,3.08,0,0,1,.67,1A2.91,2.91,0,0,1,161.4,137Zm-3.11-1.84a1.87,1.87,0,0,0-.71.14,1.85,1.85,0,0,0-.58.41,1.94,1.94,0,0,0-.4.58,1.71,1.71,0,0,0-.15.71,1.67,1.67,0,0,0,.15.71,2,2,0,0,0,.4.59,1.8,1.8,0,0,0,.58.39,1.76,1.76,0,0,0,1.42,0,1.86,1.86,0,0,0,.57-.39,1.79,1.79,0,0,0,.39-.59,1.67,1.67,0,0,0,.15-.71,1.71,1.71,0,0,0-.15-.71,1.74,1.74,0,0,0-.39-.58,1.93,1.93,0,0,0-.57-.41A1.87,1.87,0,0,0,158.29,135.13Z"/><path class="cls-4" d="M163.09,135.61V140h-1v-6h1.52l2.68,3.75V134h1.12v6h-1.12Z"/><path class="cls-4" d="M169.37,138a1.13,1.13,0,0,0,.11.51,1,1,0,0,0,.29.34,1.17,1.17,0,0,0,.42.2,2.1,2.1,0,0,0,.51.06l.38,0a1,1,0,0,0,.38-.12.7.7,0,0,0,.29-.22.62.62,0,0,0,.12-.38.53.53,0,0,0-.15-.39,1.31,1.31,0,0,0-.41-.26,4,4,0,0,0-.58-.18l-.64-.16a6.37,6.37,0,0,1-.66-.21,2.24,2.24,0,0,1-.57-.31,1.4,1.4,0,0,1-.41-.49,1.45,1.45,0,0,1-.15-.7,1.55,1.55,0,0,1,.19-.8,1.9,1.9,0,0,1,.52-.57,2.27,2.27,0,0,1,.72-.34,3.21,3.21,0,0,1,.81-.1,3.82,3.82,0,0,1,.9.1,2.08,2.08,0,0,1,.77.34,1.56,1.56,0,0,1,.54.6,1.86,1.86,0,0,1,.2.89h-1.28a1.14,1.14,0,0,0-.11-.45.78.78,0,0,0-.26-.28,1.49,1.49,0,0,0-.37-.14,2.22,2.22,0,0,0-.45,0l-.32,0a.93.93,0,0,0-.29.12.6.6,0,0,0-.21.21.57.57,0,0,0-.08.32.52.52,0,0,0,.06.29.86.86,0,0,0,.26.2l.55.18.92.24.28.07.38.12a1.86,1.86,0,0,1,.39.21,2.67,2.67,0,0,1,.36.31,1.39,1.39,0,0,1,.26.44,1.43,1.43,0,0,1,.11.6,2,2,0,0,1-.16.77,1.62,1.62,0,0,1-.48.6,2.22,2.22,0,0,1-.78.41,3.5,3.5,0,0,1-1.07.15,3.44,3.44,0,0,1-1-.13,2.3,2.3,0,0,1-.82-.38,1.92,1.92,0,0,1-.78-1.63Z"/></g></g></svg>