<?xml version="1.0" encoding="utf-8"?>
<!-- Generator: Adobe Illustrator 16.0.0, SVG Export Plug-In . SVG Version: 6.00 Build 0)  -->
<!DOCTYPE svg PUBLIC "-//W3C//DTD SVG 1.1//EN" "http://www.w3.org/Graphics/SVG/1.1/DTD/svg11.dtd">
<svg version="1.1" id="Layer_1" xmlns="http://www.w3.org/2000/svg" xmlns:xlink="http://www.w3.org/1999/xlink" x="0px" y="0px"
	 width="35px" height="43px" viewBox="0 0 35 43" enable-background="new 0 0 35 43" xml:space="preserve">
<path fill-rule="evenodd" clip-rule="evenodd" fill="#F44A52" d="M28.032,31.919c-2.809,3.235-10.651,10.311-10.651,10.311
	S8.696,34.18,6.738,31.796C4.78,29.413,0.1,23.68,0.1,18.138c0-9.591,7.776-17.367,17.367-17.367
	c9.592,0,17.368,7.776,17.368,17.367C34.834,23.753,30.843,28.685,28.032,31.919z"/>
<path fill-rule="evenodd" clip-rule="evenodd" fill="#FFFFFF" d="M17.467,3.833c7.548,0,13.667,6.119,13.667,13.667
	c0,7.548-6.119,13.668-13.667,13.668c-7.548,0-13.667-6.12-13.667-13.668C3.799,9.951,9.918,3.833,17.467,3.833z"/>
<g>
	<ellipse fill-rule="evenodd" clip-rule="evenodd" fill="#585858" cx="17.309" cy="8.538" rx="3.45" ry="1.52"/>
	<g>
		<g>
			<path fill-rule="evenodd" clip-rule="evenodd" fill="#F44A52" d="M22.346,12.649c-0.769-1.128-2.916-1.873-4.964-1.867
				c-1.925,0.005-3.826,0.537-4.834,1.68c-0.605,0.688-0.611,1.287-0.326,1.681c0.745,1.033,2.214,0.082,2.286-0.684
				c0.047-0.503,1.374-1.074,2.875-1.058c1.625,0.017,3.617,0.522,3.658,1.68c0.042,1.16-1.241,1.241-2.112,1.563l-0.085,1.666
				c0,0,2.017-0.531,2.915-1.175C22.971,15.266,23.006,13.619,22.346,12.649z M14.868,19.292c-0.023-0.751,0.164-0.919,1.25-1.301
				l-0.151-1.498c-0.893,0.269-2,0.828-2.47,1.491c-0.447,0.63-0.669,1.716,0.261,2.552c0.84,0.755,3.098,1.076,4.507,1.37
				c1.615,0.338,1.603,1.049,0.06,1.476c0,0-0.116,1.427-0.1,1.344c2.117-0.618,3.135-1.122,2.719-2.819
				C20.503,20.112,14.902,20.381,14.868,19.292z M17.056,25.95c-0.875-0.386-0.555-1.866-0.555-1.866
				c-2.134,0.626-1.558,2.131-0.327,2.676c1.178,0.521,2.366,1.034,1.502,2.427c0.38-0.324,1.303-1.482,0.916-2.052
				C18.205,26.563,17.651,26.213,17.056,25.95z"/>
		</g>
	</g>
	<path fill-rule="evenodd" clip-rule="evenodd" fill="#585858" d="M18.631,10.494C18.691,9.491,18.725,9,18.715,9h0.073
		c0,0-2.677-0.182-2.67-0.093c0.017,0.239,0.05,0.752,0.096,1.562c0,0,0.563-0.084,1.239-0.084S18.631,10.494,18.631,10.494z"/>
	<path fill-rule="evenodd" clip-rule="evenodd" fill="#585858" d="M18.034,19.818c0.161-2.396,0.311-4.903,0.436-6.828
		c0,0-0.472-0.097-1.064-0.097c-0.708,0-1.063,0.096-1.063,0.096c0.106,1.936,0.231,4.224,0.361,6.613c0,0,0.368,0.067,0.654,0.107
		C17.643,19.75,18.034,19.818,18.034,19.818z"/>
	<g>
		<path fill-rule="evenodd" clip-rule="evenodd" fill="#585858" d="M17.64,25.368c0.063-0.931,0.133-1.946,0.205-3.016
			c0,0-0.27-0.039-0.504-0.097c-0.293-0.072-0.505-0.061-0.505-0.061c0.057,1.038,0.111,2.031,0.162,2.951L17.64,25.368z"/>
		<path fill-rule="evenodd" clip-rule="evenodd" fill="#585858" d="M17.153,27.943c0.085,1.531,0.14,2.494,0.14,2.494
			s0.06-0.867,0.156-2.275L17.153,27.943z"/>
	</g>
</g>
</svg>
