<?xml version="1.0" encoding="utf-8"?>
<!-- Generator: Adobe Illustrator 16.0.0, SVG Export Plug-In . SVG Version: 6.00 Build 0)  -->
<!DOCTYPE svg PUBLIC "-//W3C//DTD SVG 1.1//EN" "http://www.w3.org/Graphics/SVG/1.1/DTD/svg11.dtd">
<svg version="1.1" id="Layer_1" xmlns="http://www.w3.org/2000/svg" xmlns:xlink="http://www.w3.org/1999/xlink" x="0px" y="0px"
	 width="52.995px" height="64.991px" viewBox="0 0 52.995 64.991" enable-background="new 0 0 52.995 64.991" xml:space="preserve">
<path fill-rule="evenodd" clip-rule="evenodd" fill="#F44A52" d="M52.401,45.521c-0.394,0.426-0.918,0.655-1.508,0.655h-4.688
	c-1.115,0-2.032-0.853-2.098-1.967C43.026,25.154,27.85,9.97,8.805,8.855C7.691,8.789,6.838,7.871,6.838,6.789V2.099
	c0-0.59,0.229-1.115,0.656-1.509C7.888,0.197,8.412,0,8.937,0c0.033,0,0.065,0,0.098,0c11.473,0.59,22.257,5.412,30.386,13.577
	c8.162,8.134,12.98,18.923,13.57,30.401C53.024,44.536,52.827,45.094,52.401,45.521z M16.271,34.452
	c0.95,0.552,1.735,1.336,2.286,2.287c1.227,1.692,1.959,3.766,1.959,6.016c0,0.584-0.061,1.153-0.154,1.71h0.154l-0.24,0.48
	c-0.369,1.694-1.156,3.229-2.248,4.498l-7.771,15.548L2.487,49.443c-1.091-1.269-1.879-2.804-2.248-4.498L0,44.465h0.154
	C0.06,43.908,0,43.339,0,42.755c0-5.668,4.592-10.263,10.258-10.263C12.507,32.492,14.58,33.225,16.271,34.452z M6.838,23.317V18.89
	c0-0.59,0.229-1.148,0.688-1.541c0.361-0.361,0.885-0.558,1.41-0.558c0.065,0,0.098,0,0.164,0
	c6.982,0.558,13.571,3.607,18.521,8.592c4.982,4.952,8.03,11.544,8.588,18.529c0.033,0.59-0.164,1.147-0.558,1.574
	c-0.393,0.459-0.95,0.688-1.54,0.688h-4.425c-1.082,0-1.967-0.819-2.065-1.902C26.67,34.271,18.737,26.335,8.74,25.384
	C7.658,25.285,6.838,24.4,6.838,23.317z"/>
</svg>
