<?xml version="1.0" encoding="utf-8"?>
<!-- Generator: Adobe Illustrator 16.0.0, SVG Export Plug-In . SVG Version: 6.00 Build 0)  -->
<!DOCTYPE svg PUBLIC "-//W3C//DTD SVG 1.1//EN" "http://www.w3.org/Graphics/SVG/1.1/DTD/svg11.dtd">
<svg version="1.1" id="Layer_1" xmlns="http://www.w3.org/2000/svg" xmlns:xlink="http://www.w3.org/1999/xlink" x="0px" y="0px"
	 width="147.399px" height="147.4px" viewBox="136.066 0 147.399 147.4" enable-background="new 136.066 0 147.399 147.4"
	 xml:space="preserve">
<g>
	<path fill="#3C4C57" d="M280.766,131.674L222.792,73.7l57.974-57.974c3.599-3.599,3.599-9.428,0-13.027
		c-3.595-3.598-9.428-3.598-13.027,0l-57.974,57.974L151.792,2.699c-3.595-3.598-9.428-3.598-13.027,0
		c-3.598,3.592-3.598,9.428,0,13.027L196.738,73.7l-57.974,57.974c-3.598,3.599-3.598,9.428,0,13.027
		c3.598,3.598,9.428,3.598,13.027,0l57.974-57.974l57.974,57.974c3.599,3.598,9.433,3.598,13.027,0
		C284.365,141.103,284.365,135.273,280.766,131.674z"/>
</g>
</svg>
