<?xml version="1.0" encoding="utf-8"?>
<!-- Generator: Adobe Illustrator 16.0.0, SVG Export Plug-In . SVG Version: 6.00 Build 0)  -->
<!DOCTYPE svg PUBLIC "-//W3C//DTD SVG 1.1//EN" "http://www.w3.org/Graphics/SVG/1.1/DTD/svg11.dtd">
<svg version="1.1" id="Layer_1" xmlns="http://www.w3.org/2000/svg" xmlns:xlink="http://www.w3.org/1999/xlink" x="0px" y="0px"
	 width="138.311px" height="138.311px" viewBox="140.487 4.467 138.311 138.311"
	 enable-background="new 140.487 4.467 138.311 138.311" xml:space="preserve">
<path fill="#3C4C57" d="M253.781,92.743c-8.723,0-16.408,4.492-20.886,11.278l-43.878-21.938c0.955-2.647,1.505-5.489,1.505-8.462
	s-0.548-5.815-1.505-8.462l43.879-21.938c4.48,6.786,12.164,11.278,20.886,11.278c13.794,0,25.017-11.223,25.017-25.017
	c0-13.793-11.223-25.018-25.018-25.018c-13.796,0-25.019,11.223-25.019,25.017c0,2.973,0.548,5.812,1.505,8.459l-43.879,21.939
	c-4.479-6.785-12.162-11.276-20.882-11.276c-13.795,0-25.018,11.222-25.018,25.017s11.223,25.017,25.017,25.017
	c8.722,0,16.404-4.492,20.884-11.276l43.877,21.939c-0.953,2.646-1.503,5.486-1.503,8.458c0,13.793,11.223,25.018,25.019,25.018
	c13.795,0,25.016-11.223,25.016-25.018C278.796,103.964,267.576,92.743,253.781,92.743z M253.781,10.362
	c10.541,0,19.12,8.577,19.12,19.121c0,10.543-8.577,19.12-19.12,19.12c-10.544,0-19.123-8.577-19.123-19.12
	C234.658,18.939,243.237,10.362,253.781,10.362z M165.504,92.743c-10.543,0-19.121-8.577-19.121-19.121s8.577-19.121,19.121-19.121
	s19.121,8.577,19.121,19.121S176.047,92.743,165.504,92.743z M253.781,136.88c-10.544,0-19.123-8.577-19.123-19.122
	c0-10.542,8.578-19.12,19.123-19.12c10.541,0,19.12,8.577,19.12,19.12C272.901,128.302,264.324,136.88,253.781,136.88z"/>
</svg>
