<?xml version="1.0" encoding="utf-8"?>
<!-- Generator: Adobe Illustrator 16.0.0, SVG Export Plug-In . SVG Version: 6.00 Build 0)  -->
<!DOCTYPE svg PUBLIC "-//W3C//DTD SVG 1.1//EN" "http://www.w3.org/Graphics/SVG/1.1/DTD/svg11.dtd">
<svg version="1.1" id="Layer_1" xmlns="http://www.w3.org/2000/svg" xmlns:xlink="http://www.w3.org/1999/xlink" x="0px" y="0px"
	 width="59.695px" height="60px" viewBox="0 0 59.695 60" enable-background="new 0 0 59.695 60" xml:space="preserve">
<path fill="#F44A52" d="M29.848,0C13.369,0,0,13.438,0,30s13.369,30,29.848,30c16.478,0,29.847-13.438,29.847-30S46.326,0,29.848,0z
	 M40.496,20.352c0.428-0.273,1.127-0.625,1.671-0.469c0.428,0.117,0.777,0.273,0.272,0.625c-0.233,0.156-0.583,0-0.855,0.078
	c0.35,0.078,0.855,0.234,0.699,0.586c1.011,0.586-0.311,1.289-0.972,1.211c0.311,0.039-0.661,0.625-0.661,0.586
	c-0.35,0.195-0.816,0.195-1.088,0.547c-0.311,0.43,0.117,1.172-0.466,1.016c-0.233,0.508-1.127,0.234-1.516,0.781
	c0.427,0.469-0.428,1.133-0.855,0.547c-0.389,0.156-0.194,0.586-0.583,0.82c0.155,0.234,0.194,0.469-0.078,0.625
	c0.078-0.039,0.544,0.352,0.661,0.391c-0.078,0.195-0.233,0.352-0.428,0.352c0.194,0.508-0.233,1.055-0.583,1.367
	c-0.389,0.313-1.283,0.625-1.399,0.703c-0.7,0.664-1.166,1.641,0.078,1.914c0.039,0,0.039,1.289,0.078,1.328
	c0.078,0.469,0.272,1.836-0.544,1.328c-0.389-0.195-0.622-1.289-0.738-1.719c-0.117-0.469-0.156-0.469-0.467-0.938
	c-0.505,0.586-0.583,0.156-1.01-0.117c-0.427-0.234-1.049-0.156-1.282-0.391c-0.583,0.43-1.011,0.313-1.127-0.352
	c-0.155,0.313,0.156,0.781,0.117,0.898c-0.194,0.391-0.544,0.313-0.855,0.078c-0.505-0.391-1.593,0.273-2.176,0
	c0.039,0,0.194,0.156,0.311,0.234c-0.116,0.469-0.388,0.195-0.622,0.352c-0.272,0.195-0.505,0.586-0.738,0.781
	c0.505,0.977-0.039,1.914,0,2.969c0,0.781,0.505,2.148,1.244,2.578c0.35,0.195,1.516,0.273,1.865,0.117
	c0.544-0.234,0.466-0.664,0.661-1.133c0.194-0.508,0.428-0.742,1.011-0.781c1.671-0.078,0.389,1.289,0.194,1.992
	c-0.117,0.508-0.156,1.094-0.233,1.563c0.194,0.078,0.389,0.039,0.583,0.039c0-0.156,0.117-0.352,0.117-0.469
	c0.233,0.391,1.01,0.508,1.244,0.039c0.272,0.469,0.816,0.82,0.894,1.367c0.078,0.547,0.583,1.133-0.155,1.133
	c-0.544,0,0.078,1.094,0.155,1.289c0.428,0.781,1.127,1.094,1.905,0.703c0,0.313-0.117,1.172-0.544,1.25
	C33.889,46.25,33.151,45.43,33.306,45c-0.039,0.156-0.155,0.273-0.272,0.352c-0.389-0.469-1.049-0.703-1.399-1.172
	c-0.078-0.117-1.127-1.719-0.894-1.797c-0.544,0.234-1.632-0.156-2.137-0.43c-0.816-0.43-0.933-1.563-1.943-1.406
	c-0.7,0.117-0.894,0.391-1.71,0.078c-0.544-0.195-1.011-0.586-1.555-0.859c-0.622-0.352-1.71-0.703-1.943-1.484
	c-0.233-0.625-0.155-1.367-0.505-1.953c-0.233-0.391-0.933-1.172-1.438-1.172c0.466,0-0.428-1.172-0.544-1.289
	c-0.427-0.508-1.982-1.875-1.671-2.656c0.078-0.117-0.777-0.43-0.933-0.469c0.155,0.391,0.194,0.82,0.389,1.172
	c0.194,0.391,0.427,0.742,0.661,1.133c0.427,0.703,1.01,1.563,0.933,2.422c-0.505,0.156-0.35-0.586-0.505-0.898
	c-0.272-0.508-1.01-0.508-1.205-1.055c0.078-0.039,0.117-0.039,0.194-0.078c0.039-0.664-0.933-1.211-0.777-1.68
	c-0.544-0.43-0.544-1.25-0.933-1.797c-0.35-0.508-0.933-0.742-1.438-1.094c-0.194-0.117-1.594-1.914-1.088-2.031
	c-0.777,0.195-1.166-1.641-1.049-2.109c0,0-0.078,0-0.078-0.039c0.155-0.469-0.117-2.891,0.505-2.93
	c-0.428,0.039-0.544-1.016-0.428-1.211c0.078-0.156,0.661,0.43,0.7,0.508c0.233-0.117,0.466-0.43,0.389-0.703
	c-0.117-0.313-0.544-0.586-0.816-0.82c-0.116-0.078-1.671-1.094-1.71-1.055c0.156-0.273,0.117-0.547-0.116-0.742
	C9.25,18.32,9.638,17.188,9.25,17.07c-0.155-0.039-0.311-0.156-0.466-0.313c2.254-3.594,5.402-6.602,9.133-8.672
	c0.233-0.039,0.544-0.039,0.855-0.039c0.7,0.078,1.088,0.664,1.594,1.016c0.078-0.195-0.078-0.508-0.194-0.703
	c0.117-0.313,0.583-0.391,0.855-0.469c0.35-0.039,0.855-0.117,1.166,0.039c-0.233-0.352-0.505-0.664-0.777-0.977
	c-0.039,0.039-0.156,0.117-0.194,0.195c-0.428-0.352-1.244,0.117-1.632,0.273c-0.311,0.156-0.583,0.352-0.894,0.469
	c-0.194,0.078-0.311,0.078-0.466,0.039c1.166-0.625,2.371-1.172,3.653-1.602c0.233,0.156,0.466,0.43,0.816,0.703
	c-0.233-0.195-0.233,0.703-0.155,0.859c0.428,0.586,1.36,0.195,1.943,0.195c-0.039,0,1.71,0.234,1.36-0.195
	c0.272,0.391,0.272,0.977,0.622,1.328c0.35-0.352-0.155-0.742,0.078-1.094c0.078-0.156,0.777-0.352,1.01-0.469
	c0.272-0.195-0.194-0.469-0.311-0.547c-0.389-0.234-1.904-0.352-1.166-1.25c0.272-0.313,1.244-0.156,1.555,0.039
	c0.427,0.234,0.894,0.664,0.311,1.055c0.272,0.039,1.554,0.391,1.36,0.898c0.117-0.234,0.311-0.586,0.622-0.586
	c0.35,0.039,0.427,0.859,0.583,1.055c0.544,0.977,1.477-0.977,1.632-0.898c-0.7-0.273,0.622-0.625,0.971-0.508
	c0.272,0.117,0.7,1.055,0.194,1.016c0.428,0.391,0.467,1.25-0.311,1.211c-0.544-0.039-1.166-0.781-1.671-0.195
	c-0.35,0.391-0.505,0.977-0.855,1.328c-0.544,0.547-1.283,0.508-1.943,0.43c0.272,0.039-0.583,0.938-0.661,1.094
	c-0.233,0.273-0.389,0.586-0.466,0.898c-0.078,0.391,0,0.82-0.194,1.211c0.661-0.195,1.011,1.016,0.739,1.055
	c0.816-0.117,1.477-0.117,2.254,0.156c0.544,0.195,1.36,0.43,1.593,1.016c0.155-0.234,0.894-0.117,1.127-0.039
	c0.466,0.234,0.505,0.742,0.622,1.172c0.155,0.586,0.661,1.563,1.321,1.25c0.117-0.078,0.972-0.469,0.661-0.703
	c-0.311-0.273-0.661-0.977-0.35-1.367c0.311-0.43,1.049-0.547,1.244-1.094c0.311-0.898-0.933-0.781-0.933-1.445
	c0-0.391,0.505-0.508,0.466-0.977c0-0.391-0.583-1.172-0.117-1.445c0.389-0.234,2.254,0.156,2.604,0.391
	c0.35,0.234,1.438,0.547,1.516,0.898c-0.078,0-0.117,0-0.194,0c0.311,0.273,0.583,0.859,0.039,1.016
	c0.35-0.078,1.36,0.313,0.661,0.547c0.233-0.117,0.428-0.039,0.661-0.195c0.272-0.156,0.427-0.43,0.777-0.234
	c0.078,0.039,0.505-0.82,0.739-0.781c0.35,0.039,0.427,0.547,0.583,0.781c0.155,0.352,0.583,0.469,0.738,0.82
	c0.272,0.664,0.155,1.289,1.049,1.523c0.272,0.078,1.01-0.352,0.972,0.234c0.155-0.156,0.233-0.273,0.233-0.313
	c0.039,0.547,0.272,1.172,0.933,1.094c0,0,0,0.742-0.078,0.859c-0.233,0.352-0.816,0.273-1.166,0.469
	c-0.117,0.039-1.049,0.859-0.933,0.977c-0.505-0.586-1.321-0.586-1.982-0.43c-0.7,0.117-1.36,0.195-2.021,0.469
	c-0.311,0.156-0.622,0.313-0.855,0.586c-0.117,0.156-0.311,0.859-0.505,0.898C39.991,21.016,40.185,20.586,40.496,20.352z
	 M34.161,54.609c-0.039-0.195-0.078-0.586-0.078-0.625c-0.039-0.625,0.622-1.055,0.583-1.641c-0.427-0.117-0.544-0.547-0.466-1.016
	c0.078-0.664,0.661-1.133,1.127-1.563s0.583-1.328,0.466-1.875c-0.194-0.938-0.194-1.914-0.35-2.852
	c0.039,0.234,0.7,0.156,0.816,0.469c0.156-0.273,0.233-0.625,0.428-0.898c0.155-0.234,0.427-0.313,0.661-0.508
	c0.389-0.234,1.205-1.133,1.671-0.586c0.388,0.469-0.583,0.977-0.078,1.406c0.156-0.313,0-0.781,0.311-1.094
	c0.622-0.703,1.049,0.078,1.671,0.273c0.661,0.195,0.894,0.43,1.399,0.859c-0.156-0.156,0.622-0.43,0.7-0.469
	c0.738-0.156,1.049,0.273,1.554,0.664c0.544,0.391,1.399,0.664,1.322,1.445c0.388,0.078,0.622,0.195,0.933,0.313
	c0.311,0.156,0.738,0.078,0.972,0.313C44.227,51.016,39.486,53.672,34.161,54.609z"/>
</svg>
