<?xml version="1.0" encoding="utf-8"?>
<!-- Generator: Adobe Illustrator 16.0.0, SVG Export Plug-In . SVG Version: 6.00 Build 0)  -->
<!DOCTYPE svg PUBLIC "-//W3C//DTD SVG 1.1//EN" "http://www.w3.org/Graphics/SVG/1.1/DTD/svg11.dtd">
<svg version="1.1" id="Layer_1" xmlns="http://www.w3.org/2000/svg" xmlns:xlink="http://www.w3.org/1999/xlink" x="0px" y="0px"
	 width="53.01px" height="63px" viewBox="0 0 53.01 63" enable-background="new 0 0 53.01 63" xml:space="preserve">
<path fill-rule="evenodd" clip-rule="evenodd" fill="#F44A52" d="M41.071,48.478L26.505,63L11.939,48.478
	C4.754,43.752,0.005,35.643,0.005,26.419C0.005,11.828,11.87,0,26.505,0c14.635,0,26.5,11.828,26.5,26.419
	C53.005,35.643,48.256,43.752,41.071,48.478z M26.505,10.161c-9.007,0-16.308,7.279-16.308,16.258s7.301,16.258,16.308,16.258
	c9.006,0,16.308-7.279,16.308-16.258S35.512,10.161,26.505,10.161z M23.716,23.927h5.579v12.473h-5.579V23.927z M23.716,16.8h5.579
	v5.345h-5.579V16.8z"/>
</svg>
