<?xml version="1.0" encoding="utf-8"?>
<!-- Generator: Adobe Illustrator 16.0.0, SVG Export Plug-In . SVG Version: 6.00 Build 0)  -->
<!DOCTYPE svg PUBLIC "-//W3C//DTD SVG 1.1//EN" "http://www.w3.org/Graphics/SVG/1.1/DTD/svg11.dtd">
<svg version="1.1" id="Layer_1" xmlns="http://www.w3.org/2000/svg" xmlns:xlink="http://www.w3.org/1999/xlink" x="0px" y="0px"
	 width="53.953px" height="54.01px" viewBox="0 0 53.953 54.01" enable-background="new 0 0 53.953 54.01" xml:space="preserve">
<path fill="#F44A52" d="M53.075,32.631c0-0.598-0.491-1.126-1.124-1.126h-6.744c-0.526,0-0.878,0.317-1.054,0.809
	c-0.597,1.406-1.019,2.743-1.861,4.114c-3.267,5.345-9.063,8.581-15.315,8.581c-4.531,0-8.922-1.759-12.224-4.853l4.813-4.817
	c0.421-0.422,0.667-0.984,0.667-1.583c0-1.23-1.019-2.25-2.248-2.25H2.248c-1.229,0-2.248,1.02-2.248,2.25v15.753
	c0,1.23,1.019,2.251,2.248,2.251c0.598,0,1.159-0.246,1.581-0.668l4.531-4.536c4.987,4.746,11.626,7.454,18.476,7.454
	c12.962,0,23.219-8.685,26.204-21.132C53.075,32.807,53.075,32.701,53.075,32.631z M53.953,4.501c0-1.23-1.019-2.251-2.247-2.251
	c-0.598,0-1.159,0.246-1.581,0.668l-4.566,4.536C40.57,2.743,33.861,0,26.977,0C14.016,0,3.653,8.65,0.632,21.133
	c0,0.07,0,0.176,0,0.246c0,0.598,0.492,1.125,1.124,1.125h6.99c0.527,0,0.879-0.316,1.054-0.809c0.598-1.406,1.02-2.742,1.862-4.114
	c3.267-5.345,9.063-8.58,15.314-8.58c4.531,0,8.922,1.723,12.26,4.818l-4.848,4.853c-0.422,0.422-0.668,0.984-0.668,1.582
	c0,1.23,1.02,2.25,2.248,2.25h15.737c1.229,0,2.247-1.02,2.247-2.25V4.501z"/>
</svg>
