<?xml version="1.0" encoding="utf-8"?>
<!-- Generator: Adobe Illustrator 16.0.0, SVG Export Plug-In . SVG Version: 6.00 Build 0)  -->
<!DOCTYPE svg PUBLIC "-//W3C//DTD SVG 1.1//EN" "http://www.w3.org/Graphics/SVG/1.1/DTD/svg11.dtd">
<svg version="1.1" id="Layer_1" xmlns="http://www.w3.org/2000/svg" xmlns:xlink="http://www.w3.org/1999/xlink" x="0px" y="0px"
	 width="35px" height="43px" viewBox="0 0 35 43" enable-background="new 0 0 35 43" xml:space="preserve">
<path fill-rule="evenodd" clip-rule="evenodd" fill="#DADDDF" d="M28.032,31.919c-2.809,3.235-10.651,10.311-10.651,10.311
	S8.696,34.18,6.738,31.796C4.78,29.413,0.1,23.68,0.1,18.138c0-9.591,7.776-17.367,17.367-17.367
	c9.592,0,17.368,7.776,17.368,17.367C34.834,23.753,30.843,28.685,28.032,31.919z"/>
<path fill-rule="evenodd" clip-rule="evenodd" fill="#EFF0F1" d="M17.467,4.125c7.387,0,13.375,5.988,13.375,13.375
	c0,7.387-5.988,13.375-13.375,13.375S4.092,24.887,4.092,17.5C4.092,10.113,10.08,4.125,17.467,4.125z"/>
<ellipse fill-rule="evenodd" clip-rule="evenodd" fill="#585858" cx="17.281" cy="10.531" rx="4.469" ry="1.969"/>
<g>
	<g>
		<path fill-rule="evenodd" clip-rule="evenodd" fill="#F44A52" d="M23.803,15.855c-0.994-1.461-3.775-2.426-6.429-2.418
			c-2.494,0.007-4.955,0.696-6.261,2.176c-0.785,0.891-0.792,1.666-0.422,2.176c0.964,1.337,2.867,0.106,2.96-0.886
			c0.062-0.652,1.779-1.391,3.723-1.371c2.104,0.022,4.685,0.677,4.737,2.176c0.055,1.502-1.607,1.607-2.736,2.025l-0.109,2.156
			c0,0,2.611-0.688,3.775-1.521C24.613,19.244,24.658,17.112,23.803,15.855z M14.119,24.458c-0.03-0.973,0.212-1.189,1.618-1.685
			l-0.195-1.939c-1.157,0.348-2.591,1.073-3.199,1.932c-0.579,0.815-0.866,2.222,0.338,3.304c1.088,0.979,4.012,1.395,5.837,1.775
			c2.091,0.437,2.075,1.358,0.076,1.91c0,0-0.15,1.849-0.129,1.74c2.742-0.8,4.06-1.453,3.521-3.65
			C21.417,25.521,14.163,25.868,14.119,24.458z M16.953,33.082c-1.134-0.5-0.719-2.418-0.719-2.418
			c-2.764,0.812-2.018,2.76-0.423,3.466c1.526,0.676,3.064,1.34,1.945,3.144c0.493-0.421,1.687-1.921,1.185-2.658
			C18.44,33.874,17.724,33.422,16.953,33.082z"/>
	</g>
</g>
<path fill-rule="evenodd" clip-rule="evenodd" fill="#585858" d="M18.992,13c0.079-1.299,0.122-2,0.108-2h0.096
	c0,0-3.467-0.171-3.459-0.056c0.021,0.311,0.065,1.006,0.125,2.056c0,0,0.73-0.125,1.605-0.125S18.992,13,18.992,13z"/>
<path fill-rule="evenodd" clip-rule="evenodd" fill="#585858" d="M18.22,25.14c0.209-3.104,0.402-6.349,0.563-8.842
	c0,0-0.611-0.126-1.377-0.126c-0.917,0-1.377,0.125-1.377,0.125c0.138,2.507,0.299,5.47,0.468,8.563c0,0,0.476,0.088,0.847,0.14
	C17.713,25.052,18.22,25.14,18.22,25.14z"/>
<g>
	<path fill-rule="evenodd" clip-rule="evenodd" fill="#585858" d="M17.709,32.328c0.082-1.206,0.172-2.521,0.266-3.906
		c0,0-0.35-0.05-0.654-0.125c-0.38-0.094-0.653-0.078-0.653-0.078c0.073,1.344,0.144,2.63,0.209,3.822L17.709,32.328z"/>
	<path fill-rule="evenodd" clip-rule="evenodd" fill="#585858" d="M17.079,35.663c0.111,1.983,0.181,3.229,0.181,3.229
		s0.077-1.122,0.202-2.946L17.079,35.663z"/>
</g>
</svg>
